<svg xmlns="http://www.w3.org/2000/svg" width="200" height="100" viewBox="0, 0, 400,177.48344370860926">
    <path d="M16.350 41.437 C 16.112 41.723,16.151 73.090,16.389 73.458 C 16.503 73.635,53.702 73.680,201.407 73.680 L 386.281 73.680 386.394 72.856 C 386.593 71.403,386.526 41.912,386.323 41.532 C 386.080 41.079,16.726 40.984,16.350 41.437 M10.723 80.562 C 10.616 80.634,10.432 80.892,10.314 81.136 C 10.110 81.560,10.113 81.564,10.380 81.225 C 10.534 81.030,10.794 80.770,10.957 80.648 C 11.268 80.415,11.060 80.337,10.723 80.562 M9.942 84.154 C 9.942 84.919,9.951 84.931,10.219 84.549 C 10.469 84.192,10.469 84.117,10.219 83.760 C 9.951 83.377,9.942 83.390,9.942 84.154 M10.471 128.455 C 10.128 128.869,10.373 128.947,10.740 128.541 C 10.918 128.345,10.980 128.185,10.879 128.185 C 10.778 128.185,10.595 128.306,10.471 128.455 M9.942 130.581 C 9.942 130.728,10.082 130.841,10.253 130.834 C 10.440 130.825,10.475 130.784,10.341 130.730 C 10.218 130.680,10.163 130.567,10.218 130.478 C 10.273 130.388,10.234 130.315,10.130 130.315 C 10.027 130.315,9.942 130.435,9.942 130.581 "
          fill="#f9fcfa"/>
    <path d="M14.579 73.935 C 12.975 74.365,13.078 73.391,13.202 86.906 C 13.405 109.148,13.707 161.465,13.644 163.577 C 13.584 165.626,13.569 165.690,13.094 166.069 C 12.743 166.348,12.605 166.619,12.605 167.028 L 12.605 167.599 15.091 167.599 L 17.577 167.599 17.577 166.899 C 17.577 166.514,17.660 166.148,17.762 166.085 C 18.102 165.875,18.416 166.344,18.365 166.986 L 18.315 167.614 20.604 167.588 L 22.892 167.562 22.853 166.915 C 22.821 166.377,22.873 166.267,23.161 166.267 C 23.560 166.267,23.834 167.025,23.563 167.377 C 23.429 167.551,23.761 167.599,25.100 167.599 C 26.040 167.599,26.818 167.539,26.829 167.466 C 26.840 167.392,26.868 167.071,26.892 166.751 C 26.945 166.042,27.078 165.886,27.401 166.154 C 27.552 166.279,27.621 166.592,27.581 166.960 L 27.515 167.562 29.830 167.588 L 32.145 167.614 32.076 166.987 C 32.033 166.598,32.099 166.282,32.248 166.158 C 32.627 165.844,32.981 166.257,32.926 166.949 L 32.879 167.539 33.844 167.578 L 34.808 167.617 34.739 166.988 C 34.695 166.591,34.762 166.282,34.919 166.152 C 35.273 165.858,35.512 166.163,35.541 166.946 L 35.566 167.599 36.927 167.599 L 38.287 167.599 38.207 167.052 C 38.037 165.893,38.877 165.223,39.695 165.866 C 40.078 166.168,40.146 166.346,40.091 166.914 L 40.026 167.599 41.111 167.599 L 42.197 167.599 42.226 166.856 C 42.279 165.484,43.688 164.841,43.935 166.076 C 44.134 167.070,44.140 167.416,43.960 167.495 C 43.852 167.543,44.143 167.571,44.607 167.557 C 45.320 167.536,45.885 167.249,45.229 167.241 C 45.086 167.239,45.072 167.192,45.190 167.108 C 45.291 167.036,45.366 166.858,45.357 166.711 C 45.331 166.309,45.620 166.009,45.921 166.124 C 46.116 166.199,46.167 166.413,46.109 166.913 L 46.030 167.599 47.693 167.599 L 49.356 167.599 49.359 166.667 C 49.362 165.583,49.603 165.036,49.886 165.468 C 50.069 165.746,50.114 166.055,50.112 167.022 C 50.112 167.574,50.142 167.599,50.799 167.599 C 51.177 167.599,51.477 167.539,51.466 167.466 C 51.234 165.997,52.016 164.970,52.896 165.587 C 53.233 165.823,53.285 165.998,53.234 166.732 L 53.174 167.599 54.594 167.598 L 56.014 167.598 56.017 166.666 C 56.020 165.521,56.220 164.906,56.462 165.296 C 56.587 165.497,56.952 165.547,58.047 165.514 C 59.698 165.464,60.115 165.780,59.975 166.976 C 59.912 167.514,59.953 167.599,60.278 167.599 C 60.600 167.599,60.659 167.482,60.696 166.770 C 60.749 165.734,60.963 165.325,61.523 165.185 C 62.339 164.980,62.494 165.180,62.494 166.439 L 62.494 167.599 63.249 167.596 C 63.664 167.595,63.921 167.535,63.820 167.463 C 63.719 167.391,63.649 167.233,63.665 167.111 C 63.680 166.988,63.703 166.489,63.715 166.001 C 63.740 165.012,64.621 164.616,64.893 165.472 C 65.056 165.986,64.943 167.309,64.722 167.463 C 64.620 167.535,64.896 167.595,65.336 167.596 L 66.137 167.599 66.073 166.796 C 65.972 165.523,66.138 165.113,66.755 165.113 C 67.432 165.113,67.788 165.649,67.844 166.755 C 67.881 167.484,67.939 167.599,68.265 167.599 C 68.591 167.599,68.647 167.485,68.682 166.755 C 68.735 165.620,68.841 165.329,69.250 165.199 C 69.516 165.115,69.596 164.927,69.596 164.391 L 69.596 163.693 70.928 163.693 L 72.259 163.693 72.259 163.071 L 72.259 162.450 74.257 162.415 C 75.783 162.388,75.950 162.365,74.967 162.318 L 73.680 162.257 73.680 161.022 L 73.680 159.787 74.922 159.787 L 76.165 159.787 76.165 160.408 L 76.165 161.030 77.497 161.030 L 78.828 161.030 78.828 160.408 C 78.828 159.802,78.845 159.787,79.538 159.787 L 80.249 159.787 80.249 159.077 L 80.249 158.367 81.491 158.367 L 82.734 158.367 82.764 159.743 C 82.780 160.499,82.825 160.822,82.863 160.460 L 82.932 159.802 84.298 159.741 L 85.664 159.681 84.288 159.645 L 82.912 159.609 82.912 158.367 L 82.912 157.124 84.865 157.124 L 86.818 157.124 86.818 156.414 L 86.818 155.704 88.149 155.704 L 89.481 155.704 89.481 155.082 L 89.481 154.461 90.713 154.461 L 91.945 154.461 92.014 155.126 L 92.084 155.792 92.114 155.126 L 92.144 154.461 94.097 154.461 L 96.050 154.461 96.050 153.751 L 96.050 153.040 97.381 153.040 L 98.713 153.040 98.713 152.419 L 98.713 151.798 100.044 151.798 L 101.376 151.798 101.376 152.419 C 101.376 153.026,101.393 153.040,102.086 153.040 C 102.779 153.040,102.796 153.026,102.796 152.419 L 102.796 151.798 105.415 151.762 C 106.855 151.743,107.455 151.699,106.747 151.666 L 105.459 151.605 105.459 150.369 L 105.459 149.134 106.702 149.134 L 107.945 149.134 107.945 149.756 C 107.945 150.362,107.962 150.377,108.655 150.377 C 109.348 150.377,109.365 150.362,109.365 149.756 L 109.365 149.134 111.318 149.134 L 113.271 149.134 113.271 149.756 L 113.271 150.377 114.603 150.377 L 115.934 150.377 115.934 149.756 L 115.934 149.134 117.976 149.134 L 120.018 149.134 120.018 148.439 C 120.018 147.277,120.112 147.182,121.261 147.182 C 122.409 147.182,122.503 147.277,122.503 148.439 C 122.503 149.132,122.506 149.134,123.213 149.134 C 123.907 149.134,123.924 149.120,123.924 148.513 L 123.924 147.892 125.166 147.892 L 126.409 147.892 126.409 148.513 C 126.409 149.120,126.426 149.134,127.119 149.134 L 127.830 149.134 127.830 148.371 C 127.830 147.385,128.057 147.182,129.161 147.182 C 130.265 147.182,130.493 147.385,130.493 148.371 L 130.493 149.134 131.203 149.134 C 131.896 149.134,131.913 149.120,131.913 148.513 L 131.913 147.892 133.145 147.892 L 134.377 147.892 134.447 148.557 L 134.516 149.223 134.546 148.557 L 134.576 147.892 135.908 147.892 L 137.239 147.892 137.239 147.182 L 137.239 146.471 138.482 146.471 L 139.725 146.471 139.725 147.182 L 139.725 147.892 141.767 147.892 L 143.808 147.892 143.808 147.182 L 143.808 146.471 145.051 146.471 L 146.294 146.471 146.294 147.182 L 146.294 147.892 148.380 147.856 C 150.026 147.828,150.176 147.807,149.090 147.760 L 147.714 147.699 147.714 146.464 L 147.714 145.229 149.046 145.229 L 150.377 145.229 150.377 145.850 L 150.377 146.471 155.605 146.471 L 160.832 146.471 160.900 147.226 L 160.968 147.980 160.999 147.226 L 161.030 146.471 164.314 146.471 L 167.599 146.471 167.599 145.850 L 167.599 145.229 170.262 145.229 L 172.925 145.229 172.925 145.850 C 172.925 146.442,172.955 146.471,173.546 146.471 C 174.138 146.471,174.168 146.442,174.168 145.850 L 174.168 145.229 177.442 145.229 L 180.715 145.229 180.785 145.894 L 180.855 146.560 180.884 145.894 L 180.914 145.229 186.762 145.229 L 192.611 145.229 192.680 145.894 L 192.750 146.560 192.780 145.894 L 192.810 145.229 194.042 145.229 L 195.274 145.229 195.343 145.894 L 195.413 146.560 195.443 145.894 L 195.473 145.229 198.036 145.229 L 200.600 145.229 200.670 145.894 L 200.739 146.560 200.769 145.894 L 200.799 145.229 202.031 145.229 L 203.263 145.229 203.333 145.894 L 203.402 146.560 203.432 145.894 L 203.462 145.229 217.921 145.229 L 232.380 145.229 232.449 145.894 C 232.515 146.520,232.521 146.510,232.549 145.737 C 232.578 144.944,232.602 144.909,233.200 144.796 C 233.907 144.664,235.064 144.834,235.064 145.071 C 235.064 145.158,236.538 145.229,238.338 145.229 L 241.612 145.229 241.682 145.894 L 241.751 146.560 241.781 145.894 L 241.811 145.229 250.333 145.229 L 258.855 145.229 258.855 145.850 L 258.855 146.471 260.275 146.471 L 261.696 146.471 261.696 145.850 L 261.696 145.229 262.938 145.229 L 264.181 145.229 264.181 145.850 L 264.181 146.471 265.601 146.471 L 267.022 146.471 267.022 145.850 L 267.022 145.229 268.265 145.229 L 269.507 145.229 269.507 145.850 L 269.507 146.471 270.829 146.471 L 272.150 146.471 272.218 147.226 L 272.286 147.980 272.317 147.226 L 272.348 146.471 274.922 146.471 L 277.497 146.471 277.497 147.182 L 277.497 147.892 281.491 147.892 L 285.486 147.892 285.486 148.513 C 285.486 149.120,285.503 149.134,286.196 149.134 C 286.889 149.134,286.906 149.120,286.906 148.513 L 286.906 147.892 288.138 147.892 L 289.370 147.892 289.440 148.557 L 289.510 149.223 289.540 148.557 L 289.569 147.892 290.812 147.892 L 292.055 147.892 292.055 148.513 C 292.055 149.120,292.072 149.134,292.765 149.134 C 293.458 149.134,293.475 149.120,293.475 148.513 L 293.475 147.892 294.718 147.892 L 295.961 147.892 295.961 148.513 L 295.961 149.134 297.381 149.134 L 298.802 149.134 298.802 148.513 L 298.802 147.892 300.044 147.892 L 301.287 147.892 301.317 149.179 C 301.334 149.892,301.378 150.169,301.417 149.800 L 301.486 149.134 302.718 149.134 L 303.950 149.134 303.950 150.367 L 303.950 151.599 303.285 151.668 C 302.918 151.707,303.258 151.738,304.039 151.738 C 304.820 151.738,305.160 151.707,304.794 151.668 L 304.128 151.599 304.128 150.367 L 304.128 149.134 305.371 149.134 L 306.613 149.134 306.613 149.756 C 306.613 150.362,306.630 150.377,307.324 150.377 L 308.034 150.377 308.034 151.087 L 308.034 151.798 309.277 151.798 L 310.519 151.798 310.519 152.419 L 310.519 153.040 312.561 153.040 L 314.603 153.040 314.603 153.751 L 314.603 154.461 315.934 154.461 L 317.266 154.461 317.266 153.751 L 317.266 153.040 318.597 153.040 L 319.929 153.040 319.929 154.372 L 319.929 155.704 321.261 155.704 L 322.592 155.704 322.592 156.414 L 322.592 157.124 324.545 157.124 L 326.498 157.124 326.498 157.745 L 326.498 158.367 328.451 158.367 L 330.404 158.367 330.404 159.077 L 330.404 159.787 331.114 159.787 L 331.824 159.787 331.824 159.077 L 331.824 158.367 332.534 158.367 C 333.228 158.367,333.245 158.352,333.245 157.745 C 333.245 157.152,333.273 157.124,333.872 157.124 C 335.401 157.124,336.521 159.505,335.064 159.658 C 334.698 159.696,335.018 159.741,335.775 159.757 L 337.150 159.787 337.150 160.408 C 337.150 161.000,337.180 161.030,337.772 161.030 L 338.393 161.030 338.393 162.361 L 338.393 163.693 340.346 163.693 L 342.299 163.693 342.299 164.403 C 342.299 164.794,342.364 165.113,342.443 165.113 C 343.073 165.113,343.837 167.264,343.288 167.492 C 343.183 167.535,343.338 167.577,343.631 167.584 L 344.163 167.597 344.175 166.509 C 344.184 165.753,344.269 165.362,344.457 165.223 C 345.080 164.764,344.340 164.048,343.242 164.048 L 342.477 164.048 342.477 163.249 L 342.477 162.450 343.719 162.450 L 344.962 162.450 344.962 163.071 C 344.962 163.413,345.033 163.693,345.120 163.693 C 345.207 163.693,345.332 163.984,345.399 164.340 C 345.466 164.696,345.643 165.174,345.792 165.401 C 345.971 165.675,346.042 166.115,346.001 166.707 C 345.941 167.563,345.957 167.599,346.396 167.599 C 346.803 167.599,346.845 167.540,346.776 167.068 C 346.608 165.927,347.115 165.113,347.993 165.113 L 348.513 165.113 348.513 166.356 L 348.513 167.599 349.037 167.599 C 349.468 167.599,349.559 167.527,349.545 167.199 C 349.467 165.340,349.653 164.960,350.533 165.181 C 351.056 165.312,351.418 166.136,351.321 166.973 C 351.256 167.529,351.293 167.599,351.656 167.599 C 352.027 167.599,352.064 167.519,352.064 166.711 C 352.064 165.409,352.868 164.700,353.560 165.392 C 353.916 165.748,354.078 166.394,353.979 167.068 C 353.913 167.516,353.960 167.599,354.281 167.599 C 354.609 167.599,354.667 167.485,354.704 166.770 C 354.757 165.734,354.971 165.325,355.531 165.185 C 356.347 164.980,356.502 165.180,356.502 166.439 C 356.502 167.587,356.508 167.599,356.992 167.599 C 357.464 167.599,357.479 167.569,357.418 166.796 C 357.317 165.529,357.483 165.113,358.091 165.113 C 358.966 165.113,359.472 165.929,359.305 167.068 L 359.227 167.599 360.358 167.599 C 361.160 167.599,361.481 167.534,361.460 167.377 C 361.268 165.899,361.719 165.213,362.716 165.463 C 363.125 165.566,363.160 165.656,363.160 166.587 L 363.160 167.599 364.314 167.599 L 365.468 167.599 365.408 166.732 C 365.335 165.679,365.809 165.171,366.551 165.508 C 367.018 165.721,367.125 165.960,367.186 166.933 C 367.247 167.905,368.580 167.992,368.548 167.022 C 368.519 166.124,368.567 165.757,368.748 165.470 C 369.034 165.018,369.271 165.491,369.307 166.581 L 369.340 167.599 369.979 167.599 L 370.617 167.599 370.617 166.674 C 370.617 165.320,372.132 164.807,372.386 166.076 C 372.585 167.070,372.591 167.416,372.411 167.490 C 372.303 167.534,372.874 167.577,373.680 167.585 C 374.728 167.595,375.151 167.536,375.169 167.377 C 375.221 166.896,375.274 166.244,375.297 165.779 C 375.311 165.510,375.400 165.291,375.496 165.291 C 375.724 165.291,375.929 166.103,375.903 166.899 C 375.866 167.993,377.187 167.944,377.244 166.849 C 377.281 166.148,377.731 165.468,378.158 165.468 C 378.685 165.468,379.257 166.266,379.195 166.914 L 379.130 167.599 380.831 167.599 L 382.532 167.599 382.571 166.844 C 382.662 165.086,384.316 165.092,384.407 166.851 L 384.447 167.612 385.787 167.561 L 387.128 167.510 387.132 166.908 C 387.135 166.461,387.250 166.234,387.576 166.031 C 388.703 165.327,388.838 165.110,388.453 164.621 C 388.036 164.090,388.018 163.546,388.380 162.361 C 388.578 161.711,388.619 161.109,388.533 160.110 C 388.459 159.244,388.499 158.331,388.644 157.603 C 388.805 156.791,388.823 156.156,388.705 155.415 C 388.614 154.841,388.595 153.991,388.663 153.525 C 388.731 153.060,388.833 148.785,388.889 144.027 C 389.095 126.803,389.167 120.671,389.260 112.561 C 389.312 108.020,389.391 101.110,389.436 97.204 C 389.712 73.202,389.770 74.392,388.315 74.129 C 387.955 74.064,387.461 73.970,387.217 73.922 C 386.803 73.839,386.795 73.851,387.093 74.093 C 387.269 74.236,387.709 74.409,388.070 74.476 C 389.288 74.704,389.210 73.582,389.076 89.026 C 388.931 105.582,388.759 111.907,388.377 114.692 C 388.224 115.814,388.015 117.332,387.915 118.065 C 387.815 118.797,387.688 119.841,387.633 120.385 C 387.545 121.270,387.481 121.395,387.028 121.565 C 386.715 121.684,386.479 121.932,386.407 122.219 C 386.256 122.821,386.098 122.803,385.854 122.156 C 385.494 121.203,383.985 121.256,383.741 122.231 C 383.593 122.821,383.434 122.799,383.191 122.156 C 382.831 121.203,381.322 121.256,381.078 122.231 C 381.015 122.478,380.902 122.681,380.826 122.681 C 380.749 122.681,380.636 122.478,380.574 122.231 C 380.315 121.202,378.846 121.211,378.415 122.243 C 378.030 123.164,377.159 123.125,376.277 122.148 L 375.636 121.438 373.382 121.438 C 370.955 121.438,370.596 121.549,370.496 122.326 C 370.417 122.948,367.474 123.031,367.361 122.415 C 367.277 121.959,366.816 121.438,366.497 121.438 C 366.361 121.438,365.986 121.151,365.665 120.801 C 364.932 120.001,364.348 120.020,363.959 120.857 C 363.641 121.541,362.265 121.739,362.077 121.127 C 361.884 120.503,361.695 120.283,361.304 120.225 C 360.560 120.115,360.096 120.350,359.890 120.942 L 359.690 121.513 359.384 120.899 C 358.888 119.906,357.578 119.932,357.226 120.942 L 357.027 121.513 356.720 120.899 C 356.430 120.317,356.360 120.281,355.391 120.231 C 354.415 120.180,354.358 120.151,354.116 119.571 C 353.688 118.547,352.218 118.544,351.961 119.568 C 351.813 120.158,351.654 120.136,351.411 119.493 C 351.051 118.540,349.542 118.593,349.298 119.568 C 349.150 120.158,348.991 120.136,348.748 119.493 C 348.388 118.540,346.879 118.593,346.635 119.568 C 346.487 120.158,346.328 120.136,346.085 119.493 C 345.725 118.540,344.216 118.593,343.971 119.568 C 343.777 120.342,343.542 120.060,343.542 119.054 C 343.542 117.913,343.252 117.532,342.385 117.532 C 341.601 117.532,341.234 118.055,341.234 119.170 C 341.234 119.636,341.154 120.018,341.056 120.018 C 340.959 120.018,340.879 119.862,340.879 119.673 C 340.879 119.149,340.195 118.775,339.237 118.775 C 338.472 118.775,338.366 118.725,338.200 118.290 C 337.801 117.241,336.567 117.186,336.143 118.198 L 335.864 118.864 335.598 118.464 C 335.384 118.143,335.166 118.065,334.487 118.065 C 333.809 118.065,333.591 118.143,333.377 118.464 L 333.110 118.864 332.832 118.198 C 332.589 117.618,332.477 117.533,331.966 117.535 C 331.045 117.539,330.857 117.759,330.759 118.950 C 330.621 120.623,330.325 120.227,330.226 118.237 C 330.133 116.370,330.018 116.120,329.245 116.115 C 328.467 116.109,328.096 116.595,328.096 117.621 C 328.096 118.578,327.827 119.081,327.638 118.476 C 327.420 117.775,327.244 117.621,326.663 117.621 C 326.128 117.621,326.056 117.682,325.943 118.234 C 325.765 119.106,325.289 119.420,324.835 118.966 C 324.500 118.631,324.499 118.593,324.794 117.819 C 325.155 116.873,324.983 116.362,324.242 116.175 C 323.320 115.944,322.866 116.417,322.806 117.671 C 322.740 119.035,322.415 119.141,322.415 117.798 C 322.415 115.981,320.699 115.377,320.134 116.996 C 319.949 117.529,319.939 117.532,318.609 117.532 L 317.271 117.532 317.014 116.917 C 316.582 115.884,315.113 115.876,314.855 116.905 C 314.711 117.476,314.495 117.481,314.354 116.916 C 314.084 115.842,313.035 115.894,312.647 117.001 C 312.335 117.891,312.371 117.882,310.261 117.590 C 309.336 117.462,309.190 117.388,309.099 117.002 C 308.831 115.860,307.232 115.861,306.852 117.003 C 306.721 117.395,306.614 117.523,306.558 117.355 C 306.510 117.208,306.425 116.948,306.369 116.776 C 306.106 115.960,304.923 115.955,304.733 116.770 C 304.670 117.043,304.501 117.453,304.358 117.682 L 304.098 118.098 303.669 117.696 C 303.433 117.474,303.240 117.153,303.240 116.983 C 303.240 115.841,301.979 115.756,301.679 116.878 C 301.525 117.454,301.226 117.570,301.138 117.088 C 301.009 116.383,300.575 116.112,299.575 116.112 C 298.661 116.112,298.620 116.090,298.369 115.490 C 298.146 114.957,298.027 114.869,297.523 114.872 C 296.602 114.876,296.415 115.096,296.316 116.287 C 296.226 117.377,295.920 117.813,295.815 117.000 C 295.712 116.191,295.395 116.112,292.278 116.112 L 289.373 116.112 289.187 115.578 C 288.994 115.025,288.513 114.791,287.786 114.899 C 287.395 114.957,287.206 115.177,287.013 115.801 C 286.929 116.074,286.665 116.111,284.826 116.108 L 282.734 116.104 282.468 115.531 C 282.233 115.025,282.118 114.958,281.491 114.958 C 280.864 114.958,280.750 115.025,280.515 115.531 C 280.183 116.246,280.042 116.257,279.893 115.579 C 279.734 114.851,279.731 114.851,273.946 114.908 L 268.886 114.958 268.620 115.531 L 268.353 116.104 266.739 116.108 C 265.028 116.112,264.657 116.275,264.508 117.088 C 264.375 117.812,264.090 117.410,264.003 116.378 C 263.892 115.058,263.773 114.868,263.061 114.872 C 262.152 114.876,261.971 115.098,261.873 116.327 C 261.780 117.501,261.496 117.813,261.342 116.911 C 261.272 116.496,261.124 116.340,260.675 116.208 C 260.313 116.102,260.098 115.924,260.098 115.733 C 260.098 114.730,258.434 114.557,257.957 115.511 C 257.682 116.061,257.679 116.062,257.272 115.733 C 256.728 115.293,255.756 115.305,255.304 115.757 C 254.991 116.070,254.715 116.111,252.952 116.108 L 250.954 116.104 250.688 115.531 C 250.453 115.025,250.338 114.958,249.711 114.958 C 249.085 114.958,248.970 115.025,248.735 115.531 C 248.405 116.242,248.355 116.242,248.025 115.531 C 247.790 115.025,247.675 114.958,247.048 114.958 C 246.422 114.958,246.307 115.025,246.072 115.531 C 245.740 116.246,245.599 116.257,245.450 115.579 C 245.240 114.622,243.847 114.589,243.409 115.531 C 243.109 116.177,242.876 116.281,242.876 115.769 C 242.876 114.695,241.221 114.540,240.709 115.566 L 240.405 116.173 240.209 115.658 C 239.801 114.584,238.083 114.541,238.083 115.604 C 238.083 116.135,237.736 116.157,237.538 115.638 C 237.144 114.601,235.904 114.516,235.494 115.498 C 235.245 116.093,234.887 116.195,234.887 115.670 C 234.887 114.669,233.223 114.560,232.814 115.535 L 232.535 116.201 232.269 115.801 C 231.884 115.223,230.433 115.223,230.048 115.801 L 229.782 116.201 229.503 115.535 L 229.224 114.869 227.534 114.869 C 226.026 114.869,225.824 114.831,225.655 114.514 C 225.381 114.002,223.831 114.003,223.472 114.515 C 223.081 115.074,200.575 114.986,200.472 114.425 C 200.370 113.868,199.900 113.449,199.379 113.449 C 198.857 113.449,198.387 113.868,198.285 114.425 C 198.226 114.747,198.080 114.780,196.715 114.780 L 195.210 114.780 195.118 114.252 C 194.960 113.338,193.345 113.194,193.071 114.069 C 192.793 114.957,192.779 114.965,192.571 114.340 C 192.201 113.227,190.515 113.195,190.356 114.298 C 190.278 114.840,190.084 114.790,189.849 114.167 C 189.475 113.176,187.905 113.300,187.660 114.339 L 187.557 114.780 183.836 114.869 L 180.115 114.958 179.849 115.531 C 179.465 116.357,179.316 116.247,179.316 115.135 C 179.316 114.027,178.921 113.449,178.162 113.449 C 177.404 113.449,177.008 114.027,177.008 115.135 C 177.008 115.672,176.929 116.112,176.831 116.112 C 176.733 116.112,176.653 115.958,176.653 115.769 C 176.653 115.030,176.212 114.869,174.191 114.869 C 172.234 114.869,171.860 114.987,171.860 115.604 C 171.860 116.135,171.513 116.157,171.316 115.638 C 170.921 114.601,169.681 114.516,169.271 115.498 C 169.022 116.093,168.664 116.195,168.664 115.670 C 168.664 114.701,167.002 114.555,166.611 115.490 C 166.468 115.832,166.313 116.112,166.267 116.112 C 166.221 116.112,166.066 115.832,165.924 115.490 C 165.533 114.555,163.870 114.701,163.870 115.670 C 163.870 116.195,163.512 116.093,163.263 115.498 C 162.755 114.281,161.288 115.057,161.174 116.603 C 161.099 117.627,160.776 117.642,160.710 116.625 C 160.607 115.038,159.029 114.266,158.571 115.578 C 158.399 116.072,158.321 116.112,157.528 116.112 C 156.565 116.112,155.881 116.485,155.881 117.010 C 155.881 117.199,155.801 117.355,155.704 117.355 C 155.606 117.355,155.526 117.011,155.526 116.591 C 155.526 115.618,155.297 115.402,154.267 115.402 C 153.332 115.402,153.218 115.538,153.218 116.659 C 153.218 117.485,153.017 117.558,152.743 116.830 C 152.383 115.876,150.874 115.930,150.629 116.905 C 150.444 117.643,150.200 117.416,150.200 116.506 C 150.200 115.390,149.833 114.869,149.046 114.869 C 148.259 114.869,147.892 115.390,147.892 116.506 C 147.892 116.973,147.812 117.355,147.714 117.355 C 147.617 117.355,147.537 117.235,147.537 117.088 C 147.537 116.506,146.865 116.112,145.871 116.112 C 145.064 116.112,144.900 116.056,144.822 115.757 C 144.702 115.297,143.101 115.237,142.734 115.679 C 142.357 116.133,142.729 116.874,143.457 117.116 C 144.190 117.360,143.853 117.593,142.900 117.500 C 142.444 117.456,142.290 117.345,142.210 117.002 C 141.949 115.886,140.340 115.858,139.981 116.963 C 139.790 117.548,139.547 117.558,139.547 116.980 C 139.547 116.305,138.885 116.112,136.574 116.112 L 134.390 116.112 134.206 115.627 C 133.817 114.605,132.573 114.521,132.168 115.490 C 132.025 115.832,131.870 116.112,131.824 116.112 C 131.778 116.112,131.623 115.832,131.481 115.490 C 131.073 114.516,129.831 114.605,129.439 115.638 C 129.242 116.157,128.895 116.135,128.895 115.604 C 128.895 114.541,127.176 114.584,126.768 115.658 L 126.572 116.173 126.269 115.566 C 125.787 114.601,124.466 114.609,124.128 115.578 C 123.956 116.072,123.878 116.112,123.085 116.112 C 122.122 116.112,121.438 116.485,121.438 117.010 C 121.438 117.522,121.188 117.428,120.963 116.830 C 120.603 115.876,119.094 115.930,118.849 116.905 C 118.664 117.643,118.420 117.416,118.420 116.506 C 118.420 115.387,118.053 114.869,117.260 114.869 C 116.328 114.869,115.972 115.504,116.360 116.474 C 116.574 117.007,116.600 117.283,116.463 117.540 C 116.083 118.250,115.224 117.775,115.224 116.855 C 115.224 115.934,113.915 115.913,113.569 116.830 C 113.358 117.388,113.094 117.532,113.094 117.088 C 113.094 116.313,112.489 116.112,110.155 116.112 L 107.926 116.112 107.740 115.578 C 107.431 114.689,106.116 114.599,105.649 115.434 C 105.257 116.134,105.557 116.852,106.351 117.116 C 107.084 117.360,106.747 117.593,105.794 117.500 C 105.338 117.456,105.184 117.345,105.104 117.002 C 104.861 115.963,103.281 115.829,103.023 116.825 C 102.869 117.418,102.563 117.544,102.467 117.053 C 102.364 116.526,101.884 116.112,101.376 116.112 C 100.868 116.112,100.388 116.526,100.285 117.053 C 100.250 117.229,100.142 117.373,100.044 117.373 C 99.947 117.373,99.839 117.229,99.804 117.053 C 99.559 115.802,97.848 115.829,97.620 117.088 C 97.569 117.372,97.396 117.453,96.758 117.490 C 95.439 117.568,95.211 117.669,95.000 118.274 C 94.723 119.069,94.482 118.727,94.417 117.447 C 94.321 115.558,92.467 115.560,92.360 117.449 C 92.286 118.771,92.177 118.932,91.826 118.235 C 91.644 117.872,91.348 117.591,91.085 117.531 C 90.811 117.468,90.609 117.268,90.545 116.996 C 90.289 115.911,88.599 115.847,88.416 116.915 C 88.265 117.794,86.935 117.803,86.569 116.927 C 86.272 116.216,85.626 115.951,84.945 116.261 C 84.082 116.654,84.259 118.255,85.181 118.388 C 85.873 118.488,85.602 118.775,84.820 118.771 C 84.145 118.768,84.038 118.707,83.799 118.194 C 83.406 117.348,82.828 117.337,82.092 118.164 L 81.503 118.827 80.911 118.162 C 80.172 117.332,79.579 117.343,79.183 118.194 L 78.917 118.767 75.356 118.771 C 71.542 118.775,71.269 118.833,71.162 119.663 C 71.092 120.206,70.785 120.187,70.654 119.631 C 70.416 118.621,68.833 118.512,68.580 119.488 C 68.426 120.081,68.120 120.207,68.024 119.716 C 67.779 118.465,66.068 118.492,65.840 119.751 C 65.711 120.467,64.337 120.345,64.022 119.590 C 63.564 118.494,62.354 118.510,61.824 119.618 C 61.415 120.472,60.556 120.790,59.634 120.428 C 58.420 119.952,56.956 120.175,56.599 120.892 L 56.295 121.500 56.099 120.984 C 55.831 120.279,55.655 120.201,54.328 120.201 C 52.996 120.201,52.803 120.287,52.636 120.952 C 52.478 121.581,52.346 121.561,52.020 120.857 C 51.784 120.351,51.670 120.284,51.043 120.284 C 50.416 120.284,50.302 120.351,50.067 120.857 C 49.816 121.396,49.744 121.431,48.868 121.434 C 47.899 121.438,47.226 121.840,47.226 122.415 C 47.226 122.849,46.919 122.718,46.796 122.231 C 46.732 121.975,46.475 121.691,46.200 121.573 C 45.934 121.459,45.574 121.222,45.399 121.047 C 45.077 120.723,44.445 120.645,43.719 120.840 C 43.025 121.026,43.171 121.927,43.949 122.251 C 44.713 122.571,44.598 122.858,43.707 122.858 C 43.195 122.858,43.010 122.770,42.874 122.459 C 42.619 121.877,40.856 121.761,40.711 122.316 C 40.579 122.822,40.414 122.772,40.182 122.156 C 39.808 121.166,38.237 121.289,37.994 122.328 C 37.930 122.600,37.745 122.791,37.511 122.825 C 37.082 122.887,36.819 123.154,36.726 123.622 C 36.593 124.293,36.303 123.888,36.218 122.912 C 36.040 120.870,34.187 121.112,34.052 123.194 L 33.999 124.012 32.532 124.064 C 31.250 124.109,31.052 124.075,30.965 123.798 C 30.757 123.126,30.572 122.945,30.039 122.892 C 29.345 122.823,28.803 123.106,28.730 123.575 C 28.659 124.024,28.340 124.056,28.254 123.622 C 28.056 122.620,26.099 122.567,26.099 123.564 C 26.099 123.750,26.019 123.952,25.921 124.012 C 25.823 124.073,25.743 123.970,25.743 123.784 C 25.743 123.598,25.597 123.314,25.419 123.152 C 24.812 122.603,23.435 122.889,23.435 123.564 C 23.435 123.750,23.356 123.952,23.258 124.012 C 23.160 124.073,23.080 123.970,23.080 123.784 C 23.080 123.313,22.523 122.858,21.945 122.858 C 21.215 122.858,20.772 123.166,20.772 123.673 C 20.772 124.282,19.132 124.267,19.028 123.657 C 18.848 122.608,16.866 122.557,16.866 123.602 C 16.866 123.796,16.628 124.019,16.251 124.176 C 15.846 124.345,15.597 124.591,15.520 124.895 C 15.445 125.196,15.195 125.444,14.804 125.608 C 14.232 125.846,14.203 125.904,14.188 126.800 C 14.113 131.326,13.900 127.778,13.797 120.284 C 13.482 97.335,13.427 74.841,13.687 74.644 C 13.825 74.539,14.277 74.347,14.692 74.216 C 15.107 74.085,15.446 73.911,15.446 73.829 C 15.446 73.747,15.426 73.690,15.402 73.703 C 15.377 73.715,15.007 73.820,14.579 73.935 M317.720 115.264 C 317.343 115.802,317.373 116.396,317.798 116.822 C 318.825 117.849,320.316 116.464,319.475 115.264 C 319.282 114.988,319.017 114.869,318.597 114.869 C 318.177 114.869,317.913 114.988,317.720 115.264 M288.536 116.940 C 288.841 117.215,288.843 117.256,288.567 117.561 C 288.181 117.988,287.853 117.974,287.610 117.521 C 287.239 116.827,287.931 116.392,288.536 116.940 M368.049 120.539 C 367.385 121.779,368.411 122.806,369.652 122.142 C 370.080 121.913,370.120 120.878,369.717 120.474 C 369.313 120.071,368.278 120.111,368.049 120.539 M72.614 120.903 C 72.957 121.122,72.635 121.704,72.170 121.704 C 71.706 121.704,71.383 121.122,71.727 120.903 C 71.873 120.810,72.073 120.733,72.170 120.733 C 72.268 120.733,72.468 120.810,72.614 120.903 M31.719 121.763 C 31.053 122.499,31.557 123.746,32.521 123.746 C 33.526 123.746,33.839 122.730,33.078 121.936 C 32.524 121.358,32.131 121.308,31.719 121.763 M55.558 122.303 C 55.743 122.649,55.335 123.213,54.899 123.213 C 54.570 123.213,54.338 122.637,54.526 122.286 C 54.748 121.873,55.333 121.883,55.558 122.303 M282.222 145.885 C 282.651 146.353,282.823 146.708,282.823 147.127 L 282.823 147.714 281.491 147.714 L 280.160 147.714 280.160 146.471 L 280.160 145.229 280.890 145.229 C 281.506 145.229,281.716 145.332,282.222 145.885 M111.279 151.750 C 111.696 151.788,112.335 151.787,112.699 151.749 C 113.062 151.711,112.721 151.680,111.940 151.681 C 111.158 151.682,110.861 151.713,111.279 151.750 M296.272 151.745 C 296.491 151.788,296.851 151.788,297.071 151.745 C 297.290 151.703,297.111 151.668,296.671 151.668 C 296.232 151.668,296.052 151.703,296.272 151.745 M326.463 156.103 L 326.517 156.946 325.265 156.946 L 324.012 156.946 324.012 156.177 C 324.012 155.184,324.064 155.146,325.337 155.208 L 326.409 155.260 326.463 156.103 M318.557 156.414 C 318.557 156.853,318.592 157.033,318.634 156.813 C 318.676 156.593,318.676 156.234,318.634 156.014 C 318.592 155.794,318.557 155.974,318.557 156.414 M89.793 157.072 C 90.014 157.114,90.334 157.113,90.504 157.068 C 90.673 157.024,90.493 156.989,90.102 156.991 C 89.711 156.993,89.573 157.029,89.793 157.072 M342.299 159.698 L 342.299 161.030 341.056 161.030 L 339.814 161.030 339.814 159.698 L 339.814 158.367 341.056 158.367 L 342.299 158.367 342.299 159.698 M78.828 162.983 C 78.828 163.674,78.845 163.693,79.439 163.693 C 80.029 163.693,80.053 163.719,80.119 164.447 C 80.156 164.866,80.200 164.549,80.218 163.737 L 80.249 162.273 79.538 162.273 L 78.828 162.273 78.828 162.983 M335.778 162.983 C 335.778 163.422,335.813 163.602,335.855 163.382 C 335.898 163.162,335.898 162.803,335.855 162.583 C 335.813 162.364,335.778 162.543,335.778 162.983 M72.259 164.559 C 72.259 164.885,72.398 165.162,72.642 165.324 C 73.074 165.611,73.417 167.348,73.070 167.492 C 72.966 167.535,73.120 167.577,73.413 167.584 L 73.946 167.597 73.958 166.509 C 73.966 165.753,74.052 165.362,74.240 165.223 C 74.863 164.764,74.122 164.048,73.024 164.048 C 72.300 164.048,72.259 164.075,72.259 164.559 M75.556 164.327 C 75.159 164.724,75.211 165.026,75.715 165.255 C 76.313 165.528,77.253 165.213,77.106 164.789 C 76.860 164.078,76.047 163.836,75.556 164.327 M83.421 164.316 C 82.667 164.726,82.674 165.039,83.444 165.270 C 84.625 165.623,85.380 165.096,84.687 164.403 C 84.271 163.987,84.054 163.972,83.421 164.316 M319.160 164.699 C 318.737 165.122,319.699 165.566,320.372 165.259 C 320.715 165.103,320.770 165.004,320.616 164.819 C 320.413 164.574,319.371 164.488,319.160 164.699 M321.718 164.830 C 321.549 165.034,321.627 165.119,322.131 165.285 C 322.909 165.542,323.642 165.257,323.292 164.834 C 323.021 164.508,321.988 164.506,321.718 164.830 M70.563 166.433 C 70.500 166.769,70.497 167.121,70.556 167.217 C 70.615 167.313,70.563 167.431,70.441 167.481 C 70.318 167.530,70.457 167.577,70.750 167.585 C 71.281 167.599,71.282 167.596,71.221 166.711 C 71.148 165.661,70.740 165.488,70.563 166.433 M78.574 166.031 C 78.268 166.975,78.369 167.599,78.828 167.599 C 79.272 167.599,79.285 167.569,79.191 166.770 C 79.098 165.973,78.734 165.537,78.574 166.031 M81.237 166.031 C 80.931 166.975,81.032 167.599,81.491 167.599 C 81.935 167.599,81.948 167.569,81.855 166.770 C 81.762 165.973,81.397 165.537,81.237 166.031 M86.564 166.031 C 86.271 166.932,86.361 167.599,86.774 167.599 C 87.161 167.599,87.188 167.537,87.138 166.769 C 87.086 165.980,86.729 165.520,86.564 166.031 M89.221 166.045 C 88.949 166.896,89.029 167.599,89.398 167.599 C 89.807 167.599,89.874 167.355,89.730 166.400 C 89.642 165.825,89.356 165.625,89.221 166.045 M91.884 166.045 C 91.612 166.896,91.692 167.599,92.061 167.599 C 92.470 167.599,92.537 167.355,92.393 166.400 C 92.305 165.825,92.019 165.625,91.884 166.045 M107.671 166.422 C 107.607 166.764,107.603 167.121,107.662 167.217 C 107.721 167.313,107.669 167.431,107.547 167.481 C 107.424 167.530,107.567 167.577,107.864 167.585 C 108.405 167.599,108.405 167.599,108.308 166.770 C 108.190 165.756,107.833 165.561,107.671 166.422 M115.675 166.045 C 115.392 166.929,115.481 167.599,115.881 167.599 C 116.227 167.599,116.289 167.507,116.289 166.992 C 116.289 166.023,115.882 165.396,115.675 166.045 M128.868 166.711 C 128.812 167.506,128.844 167.599,129.168 167.599 C 129.588 167.599,129.739 166.761,129.424 166.173 C 129.116 165.596,128.933 165.773,128.868 166.711 M134.241 166.141 C 133.908 166.763,134.050 167.599,134.489 167.599 C 134.944 167.599,135.076 166.622,134.691 166.096 C 134.452 165.769,134.440 165.770,134.241 166.141 M147.462 166.223 C 147.194 167.538,147.205 167.599,147.714 167.599 C 148.141 167.599,148.189 167.542,148.123 167.111 C 147.967 166.098,147.880 165.823,147.714 165.823 C 147.620 165.823,147.507 166.003,147.462 166.223 M266.687 166.141 C 266.354 166.763,266.496 167.599,266.934 167.599 C 267.390 167.599,267.522 166.622,267.137 166.096 C 266.898 165.769,266.885 165.770,266.687 166.141 M285.234 166.223 C 284.973 167.503,284.986 167.599,285.422 167.599 C 285.781 167.599,285.841 167.511,285.841 166.992 C 285.841 165.920,285.407 165.371,285.234 166.223 M293.234 166.179 C 292.965 167.471,292.978 167.599,293.375 167.599 C 293.848 167.599,293.981 166.629,293.582 166.084 C 293.334 165.744,293.324 165.747,293.234 166.179 M309.001 166.433 C 308.938 166.769,308.935 167.121,308.994 167.217 C 309.053 167.313,309.001 167.431,308.878 167.481 C 308.755 167.530,308.904 167.577,309.208 167.585 C 309.796 167.600,309.803 167.569,309.529 166.223 C 309.408 165.629,309.131 165.739,309.001 166.433 M330.025 166.045 C 329.858 167.578,329.862 167.599,330.382 167.599 C 330.918 167.599,330.985 167.421,330.830 166.400 C 330.743 165.822,330.081 165.530,330.025 166.045 M332.818 166.400 C 332.673 167.360,332.740 167.599,333.156 167.599 C 333.571 167.599,333.639 167.360,333.493 166.400 C 333.442 166.064,333.302 165.823,333.156 165.823 C 333.010 165.823,332.869 166.064,332.818 166.400 M335.454 166.433 C 335.391 166.769,335.388 167.121,335.447 167.217 C 335.506 167.313,335.454 167.431,335.332 167.481 C 335.209 167.530,335.355 167.577,335.656 167.585 C 336.251 167.600,336.315 167.448,336.157 166.400 C 336.040 165.629,335.601 165.650,335.454 166.433 M338.120 166.422 C 338.055 166.764,338.051 167.121,338.110 167.217 C 338.170 167.313,338.118 167.431,337.995 167.481 C 337.872 167.530,338.015 167.577,338.313 167.585 C 338.853 167.599,338.853 167.599,338.756 166.770 C 338.638 165.756,338.281 165.561,338.120 166.422 M340.783 166.422 C 340.719 166.764,340.714 167.121,340.774 167.217 C 340.833 167.313,340.781 167.431,340.658 167.481 C 340.535 167.530,340.678 167.577,340.976 167.585 C 341.517 167.599,341.517 167.599,341.420 166.770 C 341.301 165.756,340.944 165.561,340.783 166.422 "
          fill="#04850b"/>
    <path d="M15.686 74.221 C 15.579 74.327,15.102 74.514,14.626 74.636 L 13.759 74.858 13.779 81.060 C 13.851 104.055,13.809 101.999,14.203 101.642 C 14.499 101.374,14.558 101.095,14.558 99.962 C 14.558 98.101,14.638 98.023,16.595 97.963 C 18.092 97.917,18.202 97.887,18.408 97.473 C 18.998 96.287,20.445 96.207,21.320 97.312 L 21.898 98.041 22.504 97.312 C 23.043 96.663,23.195 96.582,23.879 96.582 C 24.564 96.582,24.716 96.663,25.255 97.312 L 25.861 98.041 26.438 97.312 L 27.016 96.582 28.581 96.582 L 30.147 96.582 30.514 95.961 C 31.020 95.103,31.645 95.233,32.014 96.272 C 32.114 96.553,32.453 96.582,35.671 96.582 L 39.219 96.582 39.692 95.961 C 39.953 95.619,40.273 95.340,40.403 95.340 C 40.533 95.340,40.852 95.619,41.113 95.961 C 41.373 96.303,41.689 96.582,41.814 96.582 C 41.940 96.582,42.207 96.303,42.409 95.961 C 42.875 95.170,43.153 95.179,43.836 96.005 L 44.387 96.671 44.963 96.005 C 45.679 95.178,45.815 95.178,46.499 96.005 L 47.050 96.671 47.626 96.005 C 48.199 95.344,48.211 95.340,49.564 95.340 C 51.046 95.340,51.487 95.241,51.487 94.908 C 51.487 94.789,51.686 94.504,51.929 94.276 C 52.396 93.837,53.085 94.113,53.085 94.739 C 53.085 94.867,53.265 95.063,53.484 95.175 C 53.704 95.287,54.143 95.669,54.460 96.025 L 55.036 96.671 55.587 96.005 L 56.137 95.340 57.674 95.340 L 59.210 95.340 59.786 96.005 L 60.362 96.671 60.913 96.005 L 61.464 95.340 63.533 95.342 L 65.601 95.345 66.267 94.588 L 66.933 93.830 67.599 94.588 C 68.333 95.423,69.342 95.637,69.811 95.056 C 69.937 94.901,70.232 94.565,70.467 94.310 L 70.894 93.848 71.462 94.505 C 72.163 95.315,72.183 95.315,72.933 94.496 L 73.543 93.830 74.118 94.496 C 74.827 95.316,74.938 95.319,75.532 94.541 L 76.006 93.919 78.050 93.919 C 80.239 93.919,80.704 94.049,80.963 94.729 C 81.191 95.329,81.772 95.289,82.102 94.651 C 82.457 93.963,82.628 93.919,84.947 93.919 L 86.953 93.919 87.427 93.298 C 88.005 92.540,88.323 92.512,88.562 93.196 C 88.901 94.170,90.191 94.577,90.191 93.711 C 90.191 92.816,90.455 92.676,92.156 92.676 L 93.754 92.676 94.120 93.298 C 94.728 94.328,95.340 94.012,95.340 92.668 C 95.340 90.748,96.860 90.982,96.973 92.920 C 97.041 94.075,97.468 94.244,98.008 93.328 C 98.209 92.989,98.560 92.664,98.789 92.607 C 99.037 92.544,99.251 92.324,99.317 92.062 C 99.551 91.129,100.843 91.271,100.843 92.229 C 100.843 92.374,101.040 92.541,101.280 92.602 C 101.520 92.662,101.877 92.983,102.073 93.315 C 102.526 94.083,102.845 94.078,103.305 93.298 L 103.672 92.676 109.105 92.676 C 114.479 92.676,115.224 92.603,115.224 92.076 C 115.224 91.525,115.902 91.172,116.289 91.522 C 116.485 91.699,116.644 91.948,116.644 92.076 C 116.644 92.828,122.736 93.020,123.020 92.277 C 123.434 91.195,124.517 91.138,124.666 92.190 C 124.720 92.567,124.813 92.590,126.463 92.639 L 128.204 92.690 128.567 93.304 C 129.025 94.081,129.320 94.080,129.825 93.300 C 130.397 92.417,131.927 92.361,132.410 93.206 C 132.836 93.954,133.688 94.124,133.688 93.463 C 133.688 92.602,135.967 92.468,136.494 93.298 C 137.084 94.227,137.491 94.083,137.558 92.920 C 137.598 92.242,137.716 91.913,138.027 91.622 L 138.442 91.232 138.963 91.998 C 139.471 92.746,139.506 92.764,140.359 92.715 C 141.171 92.668,141.273 92.710,141.774 93.300 C 142.385 94.021,142.681 94.000,143.134 93.206 L 143.437 92.676 146.373 92.676 L 149.309 92.676 149.623 93.342 C 149.861 93.849,150.042 94.008,150.377 94.008 C 150.713 94.008,150.893 93.849,151.132 93.342 C 151.595 92.359,153.083 92.335,153.708 93.300 C 154.215 94.083,154.508 94.081,154.975 93.289 C 155.470 92.450,157.041 92.413,157.432 93.231 C 157.940 94.295,158.727 94.320,159.160 93.285 C 159.546 92.360,160.929 92.373,161.680 93.309 C 162.257 94.027,162.563 94.005,163.017 93.210 L 163.317 92.683 165.639 92.727 L 167.961 92.772 168.310 93.345 C 168.753 94.074,169.072 94.071,169.508 93.332 L 169.855 92.745 171.493 92.757 C 173.125 92.768,173.132 92.771,173.608 93.354 C 174.156 94.025,174.467 93.990,174.914 93.206 C 175.309 92.514,175.620 92.538,176.238 93.309 C 176.816 94.028,177.121 94.005,177.577 93.206 C 177.972 92.514,178.283 92.538,178.901 93.309 C 179.476 94.025,179.785 94.005,180.232 93.221 C 180.397 92.931,180.708 92.680,180.942 92.647 C 181.208 92.609,181.378 92.450,181.412 92.207 C 181.566 91.127,182.748 91.127,182.902 92.207 C 182.936 92.450,183.106 92.609,183.372 92.647 C 183.606 92.680,183.917 92.931,184.082 93.221 C 184.494 93.942,185.353 94.120,185.353 93.484 C 185.353 92.783,185.826 92.707,190.206 92.707 L 194.437 92.706 194.795 93.313 C 195.248 94.080,195.544 94.078,196.048 93.303 L 196.449 92.687 199.467 92.637 C 202.441 92.588,202.486 92.582,202.542 92.190 C 202.683 91.201,204.172 91.273,204.172 92.269 C 204.172 92.402,204.312 92.557,204.483 92.613 C 204.654 92.670,205.037 92.991,205.333 93.327 C 205.946 94.019,206.245 93.992,206.694 93.206 C 207.089 92.514,207.400 92.538,208.018 93.309 C 208.595 94.028,208.901 94.005,209.357 93.206 C 209.752 92.514,210.063 92.538,210.681 93.309 C 211.249 94.016,211.568 94.004,211.986 93.261 L 212.254 92.784 215.230 92.722 L 218.205 92.661 218.512 93.198 C 218.964 93.990,219.274 94.027,219.823 93.354 C 220.520 92.499,223.394 92.418,223.863 93.240 C 224.299 94.004,224.611 94.020,225.182 93.309 C 225.928 92.379,227.157 92.379,227.903 93.309 C 228.482 94.030,228.786 94.005,229.247 93.197 C 229.705 92.395,231.295 92.470,231.665 93.311 C 232.146 94.401,232.783 94.396,233.306 93.298 L 233.559 92.765 235.826 92.715 L 238.093 92.666 238.398 93.201 C 238.853 93.998,239.149 94.021,239.762 93.308 L 240.302 92.679 247.818 92.689 L 255.333 92.699 255.629 93.217 C 256.073 93.995,256.373 94.017,256.983 93.318 L 257.523 92.699 262.828 92.692 C 268.490 92.685,268.797 92.657,268.797 92.142 C 268.797 91.501,269.515 91.201,269.987 91.645 C 270.211 91.856,270.395 92.133,270.395 92.260 C 270.395 92.886,276.663 92.833,276.752 92.207 C 276.911 91.094,277.965 91.139,278.400 92.277 C 278.646 92.920,287.261 92.889,287.261 92.245 C 287.261 92.126,287.460 91.841,287.703 91.613 C 288.171 91.174,288.859 91.450,288.859 92.076 C 288.859 92.553,289.596 92.650,293.647 92.709 L 297.799 92.770 298.093 93.300 C 298.468 93.977,298.958 93.977,299.333 93.298 C 299.761 92.523,300.272 92.520,300.726 93.288 C 301.194 94.083,301.509 94.085,301.974 93.298 C 302.438 92.512,302.865 92.512,303.375 93.300 C 303.876 94.073,304.175 94.081,304.617 93.332 L 304.963 92.745 306.601 92.757 C 308.234 92.768,308.241 92.771,308.717 93.354 C 309.265 94.025,309.576 93.990,310.023 93.206 C 310.418 92.514,310.729 92.538,311.347 93.309 C 311.912 94.013,312.295 94.005,312.624 93.283 C 312.969 92.526,314.070 92.679,314.070 93.484 C 314.070 94.127,314.930 93.940,315.349 93.206 C 315.515 92.915,315.779 92.676,315.934 92.676 C 316.090 92.676,316.353 92.915,316.520 93.206 C 316.993 94.035,317.553 94.095,317.891 93.353 C 318.209 92.656,318.664 92.530,319.052 93.032 C 319.241 93.276,319.479 93.575,319.581 93.697 C 319.722 93.867,321.203 93.919,325.869 93.919 L 331.972 93.919 332.552 94.652 L 333.133 95.385 333.766 94.649 L 334.399 93.914 335.848 93.916 L 337.298 93.919 337.872 94.644 L 338.447 95.369 339.110 94.600 L 339.773 93.830 340.383 94.496 C 341.134 95.316,341.152 95.316,341.861 94.496 L 342.436 93.830 343.046 94.496 C 343.796 95.315,343.816 95.315,344.516 94.505 L 345.084 93.848 345.512 94.310 C 345.747 94.565,346.042 94.901,346.168 95.056 C 346.637 95.637,347.645 95.423,348.380 94.588 L 349.046 93.830 349.718 94.602 L 350.391 95.374 351.050 94.602 L 351.709 93.830 352.361 94.595 L 353.014 95.359 353.690 94.595 L 354.366 93.830 355.035 94.588 L 355.704 95.345 357.650 95.342 L 359.596 95.340 360.323 94.626 L 361.050 93.912 361.425 94.315 C 361.743 94.656,361.779 94.834,361.662 95.465 C 361.388 96.945,362.440 97.266,363.138 95.917 L 363.436 95.340 365.011 95.340 L 366.587 95.340 366.954 95.961 C 367.155 96.303,367.435 96.582,367.575 96.582 C 367.715 96.582,367.995 96.303,368.197 95.961 C 368.661 95.175,369.087 95.175,369.598 95.963 C 370.100 96.739,370.336 96.738,370.841 95.959 C 371.205 95.396,371.318 95.340,372.078 95.340 C 372.843 95.340,372.972 95.274,373.566 94.585 L 374.216 93.830 374.912 94.591 L 375.607 95.352 376.205 94.609 L 376.802 93.866 377.127 94.267 C 377.306 94.488,377.452 94.860,377.452 95.093 C 377.452 95.989,378.569 95.554,379.149 94.432 C 379.462 93.827,380.007 93.965,380.295 94.724 C 380.584 95.485,382.639 95.607,382.744 94.870 C 382.898 93.791,384.079 93.790,384.233 94.868 C 384.264 95.083,384.441 95.274,384.643 95.308 C 384.838 95.342,385.250 95.663,385.559 96.020 L 386.120 96.671 386.889 95.872 L 387.658 95.073 387.773 92.588 C 387.837 91.221,387.984 89.743,388.101 89.303 C 388.439 88.028,389.046 76.919,388.843 75.729 C 388.732 75.080,388.661 75.008,387.925 74.797 C 387.487 74.671,387.021 74.527,386.891 74.478 C 386.760 74.429,303.351 74.369,201.538 74.345 C 99.724 74.321,16.300 74.239,16.151 74.164 C 16.001 74.088,15.793 74.114,15.686 74.221 M123.118 93.052 C 123.036 93.311,123.113 93.543,123.365 93.794 C 123.892 94.322,124.634 93.982,124.634 93.213 C 124.634 92.514,123.333 92.377,123.118 93.052 M181.480 93.236 C 181.548 93.916,182.015 94.273,182.468 93.989 C 183.175 93.547,182.969 92.676,182.157 92.676 C 181.442 92.676,181.426 92.690,181.480 93.236 M202.574 93.189 C 202.574 94.011,203.294 94.387,203.812 93.836 C 204.412 93.198,204.169 92.676,203.273 92.676 C 202.621 92.676,202.574 92.711,202.574 93.189 M276.787 93.213 C 276.787 93.982,277.528 94.322,278.055 93.794 C 278.636 93.214,278.362 92.676,277.485 92.676 C 276.826 92.676,276.787 92.707,276.787 93.213 M99.696 93.139 C 99.388 93.447,99.599 93.919,100.044 93.919 C 100.490 93.919,100.701 93.447,100.393 93.139 C 100.236 92.982,100.079 92.854,100.044 92.854 C 100.010 92.854,99.853 92.982,99.696 93.139 M115.615 93.067 C 115.166 93.516,115.584 94.043,116.201 93.806 C 116.612 93.648,116.389 92.854,115.934 92.854 C 115.876 92.854,115.732 92.950,115.615 93.067 M269.247 93.140 C 268.983 93.404,268.979 93.467,269.215 93.703 C 269.517 94.005,270.040 93.878,270.040 93.503 C 270.040 93.025,269.575 92.812,269.247 93.140 M287.830 93.067 C 287.532 93.365,287.564 93.684,287.905 93.815 C 288.349 93.985,288.713 93.599,288.494 93.190 C 288.285 92.800,288.126 92.770,287.830 93.067 M90.275 94.460 C 90.134 94.688,90.504 95.162,90.824 95.162 C 91.179 95.162,91.313 94.823,91.072 94.533 C 90.821 94.231,90.438 94.195,90.275 94.460 M382.779 95.837 C 382.779 96.712,383.640 97.116,384.015 96.416 C 384.416 95.668,384.255 95.340,383.489 95.340 C 382.829 95.340,382.779 95.375,382.779 95.837 M52.012 95.792 C 51.824 96.019,51.834 96.118,52.070 96.354 C 52.472 96.756,52.989 96.357,52.720 95.854 C 52.501 95.445,52.314 95.429,52.012 95.792 M376.557 95.792 C 376.186 96.240,376.798 96.780,377.210 96.368 C 377.533 96.045,377.425 95.517,377.036 95.517 C 376.898 95.517,376.683 95.641,376.557 95.792 M30.778 97.206 C 30.588 97.702,31.065 98.062,31.450 97.714 C 31.700 97.487,31.731 97.359,31.580 97.177 C 31.315 96.858,30.906 96.873,30.778 97.206 M42.673 97.206 C 42.483 97.702,42.960 98.062,43.345 97.714 C 43.595 97.487,43.626 97.359,43.475 97.177 C 43.211 96.858,42.801 96.873,42.673 97.206 M19.024 98.341 C 18.701 98.541,18.837 99.138,19.221 99.212 C 19.391 99.245,19.581 99.140,19.643 98.978 C 19.788 98.600,19.344 98.143,19.024 98.341 "
          fill="#04ea04"/>
    <path d="M11.304 36.514 C 11.006 36.812,11.175 79.945,11.482 81.860 C 11.827 84.020,11.829 84.103,11.558 86.187 C 11.325 87.972,11.322 87.979,10.882 87.789 C 10.432 87.595,10.065 87.532,10.207 87.674 C 10.273 87.740,10.380 87.801,10.445 87.809 C 11.230 87.911,11.185 86.674,11.185 108.029 C 11.185 127.946,11.185 127.960,10.816 128.429 C 10.613 128.687,10.373 128.853,10.283 128.797 C 10.100 128.684,10.058 128.951,10.232 129.126 C 10.294 129.187,10.499 129.041,10.689 128.800 C 10.878 128.559,11.087 128.362,11.154 128.362 C 11.220 128.362,11.246 136.714,11.212 146.922 C 11.178 157.130,11.196 165.665,11.252 165.890 C 11.436 166.621,12.598 166.520,12.581 165.773 C 12.573 165.459,12.736 164.830,12.943 164.374 C 13.312 163.560,13.317 163.415,13.233 155.053 C 13.128 144.701,12.893 94.708,12.894 83.178 C 12.895 74.700,12.943 74.035,13.554 74.035 C 14.519 74.035,14.462 74.990,14.558 57.359 L 14.647 41.187 15.446 40.486 L 16.245 39.784 201.360 39.777 L 386.475 39.769 386.846 40.535 C 387.213 41.294,387.217 41.449,387.219 56.558 C 387.219 64.950,387.270 72.232,387.331 72.740 L 387.442 73.666 388.528 73.906 C 389.365 74.092,389.664 74.246,389.833 74.579 C 390.053 75.012,390.035 87.357,389.796 100.843 C 389.539 115.333,389.485 163.736,389.726 163.889 C 389.860 163.973,390.308 164.044,390.723 164.045 L 391.478 164.048 391.478 101.287 L 391.478 38.526 390.807 38.526 C 389.827 38.526,389.379 38.140,389.313 37.236 L 389.259 36.485 200.340 36.440 C 96.435 36.416,11.369 36.449,11.304 36.514 M10.699 80.646 C 10.722 80.760,10.621 80.858,10.475 80.862 C 10.328 80.867,10.206 80.991,10.204 81.137 C 10.201 81.283,10.137 81.502,10.060 81.625 C 9.807 82.030,10.047 81.854,10.596 81.235 C 10.991 80.789,11.072 80.598,10.897 80.531 C 10.765 80.480,10.676 80.532,10.699 80.646 M9.945 131.306 C 9.947 131.591,10.024 131.944,10.118 132.091 C 10.233 132.272,10.253 132.130,10.178 131.647 C 10.044 130.769,9.941 130.620,9.945 131.306 "
          fill="#040704"/>
    <path d="M14.736 74.195 C 14.296 74.353,13.825 74.554,13.687 74.641 C 13.427 74.807,13.481 97.308,13.797 120.284 C 13.900 127.778,14.113 131.326,14.188 126.800 C 14.203 125.904,14.232 125.846,14.804 125.608 C 15.195 125.444,15.445 125.196,15.520 124.895 C 15.597 124.591,15.846 124.345,16.251 124.176 C 16.628 124.019,16.866 123.796,16.866 123.602 C 16.866 122.557,18.848 122.608,19.028 123.657 C 19.132 124.267,20.772 124.282,20.772 123.673 C 20.772 123.159,21.216 122.858,21.976 122.858 C 22.539 122.858,23.080 123.328,23.080 123.815 C 23.080 123.984,23.160 124.073,23.258 124.012 C 23.356 123.952,23.435 123.750,23.435 123.564 C 23.435 123.154,23.940 122.858,24.639 122.858 C 25.202 122.858,25.743 123.328,25.743 123.815 C 25.743 123.984,25.823 124.073,25.921 124.012 C 26.019 123.952,26.099 123.750,26.099 123.564 C 26.099 122.567,28.056 122.620,28.254 123.622 C 28.340 124.056,28.659 124.024,28.730 123.575 C 28.803 123.106,29.345 122.823,30.039 122.892 C 30.572 122.945,30.757 123.126,30.965 123.798 C 31.052 124.075,31.250 124.109,32.532 124.064 L 33.999 124.012 34.052 123.194 C 34.187 121.112,36.040 120.870,36.218 122.912 C 36.303 123.888,36.593 124.293,36.726 123.622 C 36.819 123.154,37.082 122.887,37.511 122.825 C 37.745 122.791,37.930 122.600,37.994 122.328 C 38.237 121.289,39.808 121.166,40.182 122.156 C 40.414 122.772,40.579 122.822,40.711 122.316 C 40.856 121.761,42.619 121.877,42.874 122.459 C 43.010 122.770,43.195 122.858,43.707 122.858 C 44.598 122.858,44.713 122.571,43.949 122.251 C 43.171 121.927,43.025 121.026,43.719 120.840 C 44.445 120.645,45.077 120.723,45.399 121.047 C 45.574 121.222,45.934 121.459,46.200 121.573 C 46.475 121.691,46.732 121.975,46.796 122.231 C 46.919 122.718,47.226 122.849,47.226 122.415 C 47.226 121.840,47.899 121.438,48.868 121.434 C 49.744 121.431,49.816 121.396,50.067 120.857 C 50.302 120.351,50.416 120.284,51.043 120.284 C 51.670 120.284,51.784 120.351,52.020 120.857 C 52.346 121.561,52.478 121.581,52.636 120.952 C 52.803 120.287,52.996 120.201,54.328 120.201 C 55.655 120.201,55.831 120.279,56.099 120.984 L 56.295 121.500 56.599 120.892 C 56.956 120.175,58.420 119.952,59.634 120.428 C 60.560 120.792,61.415 120.473,61.828 119.608 C 62.355 118.508,63.568 118.504,64.026 119.601 C 64.337 120.346,65.712 120.460,65.840 119.751 C 66.068 118.492,67.779 118.465,68.024 119.716 C 68.120 120.207,68.426 120.081,68.580 119.488 C 68.833 118.512,70.416 118.621,70.654 119.631 C 70.785 120.187,71.092 120.206,71.162 119.663 C 71.269 118.833,71.542 118.775,75.356 118.771 L 78.917 118.767 79.183 118.194 C 79.579 117.343,80.172 117.332,80.911 118.162 L 81.503 118.827 82.092 118.164 C 82.828 117.337,83.406 117.348,83.799 118.194 C 84.038 118.707,84.145 118.768,84.820 118.771 C 85.602 118.775,85.873 118.488,85.181 118.388 C 84.259 118.255,84.082 116.654,84.945 116.261 C 85.626 115.951,86.272 116.216,86.569 116.927 C 86.935 117.803,88.265 117.794,88.416 116.915 C 88.599 115.847,90.289 115.911,90.545 116.996 C 90.609 117.268,90.811 117.468,91.085 117.531 C 91.348 117.591,91.644 117.872,91.826 118.235 C 92.177 118.932,92.286 118.771,92.360 117.449 C 92.467 115.560,94.321 115.558,94.417 117.447 C 94.482 118.727,94.723 119.069,95.000 118.274 C 95.211 117.669,95.439 117.568,96.758 117.490 C 97.396 117.453,97.569 117.372,97.620 117.088 C 97.848 115.829,99.559 115.802,99.804 117.053 C 99.839 117.229,99.947 117.373,100.044 117.373 C 100.142 117.373,100.250 117.229,100.285 117.053 C 100.388 116.526,100.868 116.112,101.376 116.112 C 101.884 116.112,102.364 116.526,102.467 117.053 C 102.563 117.544,102.869 117.418,103.023 116.825 C 103.281 115.829,104.861 115.963,105.104 117.002 C 105.184 117.345,105.338 117.456,105.794 117.500 C 106.747 117.593,107.084 117.360,106.351 117.116 C 105.557 116.852,105.257 116.134,105.649 115.434 C 106.116 114.599,107.431 114.689,107.740 115.578 L 107.926 116.112 110.155 116.112 C 112.489 116.112,113.094 116.313,113.094 117.088 C 113.094 117.532,113.358 117.388,113.569 116.830 C 113.915 115.913,115.224 115.934,115.224 116.855 C 115.224 117.775,116.083 118.250,116.463 117.540 C 116.600 117.283,116.574 117.007,116.360 116.474 C 115.972 115.504,116.328 114.869,117.260 114.869 C 118.053 114.869,118.420 115.387,118.420 116.506 C 118.420 117.472,118.605 117.598,118.895 116.830 C 119.255 115.876,120.764 115.930,121.009 116.905 C 121.142 117.434,121.438 117.507,121.438 117.010 C 121.438 116.485,122.122 116.112,123.085 116.112 C 123.878 116.112,123.956 116.072,124.128 115.578 C 124.466 114.609,125.787 114.601,126.269 115.566 L 126.572 116.173 126.768 115.658 C 127.176 114.584,128.895 114.541,128.895 115.604 C 128.895 116.135,129.242 116.157,129.439 115.638 C 129.831 114.605,131.073 114.516,131.481 115.490 C 131.623 115.832,131.778 116.112,131.824 116.112 C 131.870 116.112,132.025 115.832,132.168 115.490 C 132.573 114.521,133.817 114.605,134.206 115.627 L 134.390 116.112 136.574 116.112 C 138.885 116.112,139.547 116.305,139.547 116.980 C 139.547 117.558,139.790 117.548,139.981 116.963 C 140.340 115.858,141.949 115.886,142.210 117.002 C 142.290 117.345,142.444 117.456,142.900 117.500 C 143.853 117.593,144.190 117.360,143.457 117.116 C 142.729 116.874,142.357 116.133,142.734 115.679 C 143.101 115.237,144.702 115.297,144.822 115.757 C 144.900 116.056,145.064 116.112,145.871 116.112 C 146.865 116.112,147.537 116.506,147.537 117.088 C 147.537 117.235,147.617 117.355,147.714 117.355 C 147.812 117.355,147.892 116.973,147.892 116.506 C 147.892 115.390,148.259 114.869,149.046 114.869 C 149.833 114.869,150.200 115.390,150.200 116.506 C 150.200 117.472,150.385 117.598,150.675 116.830 C 151.035 115.876,152.544 115.930,152.788 116.905 C 152.960 117.589,153.218 117.442,153.218 116.659 C 153.218 115.538,153.332 115.402,154.267 115.402 C 155.297 115.402,155.526 115.618,155.526 116.591 C 155.526 117.011,155.606 117.355,155.704 117.355 C 155.801 117.355,155.881 117.199,155.881 117.010 C 155.881 116.485,156.565 116.112,157.528 116.112 C 158.321 116.112,158.399 116.072,158.571 115.578 C 159.029 114.266,160.607 115.038,160.710 116.625 C 160.776 117.642,161.099 117.627,161.174 116.603 C 161.288 115.057,162.755 114.281,163.263 115.498 C 163.512 116.093,163.870 116.195,163.870 115.670 C 163.870 114.701,165.533 114.555,165.924 115.490 C 166.066 115.832,166.221 116.112,166.267 116.112 C 166.313 116.112,166.468 115.832,166.611 115.490 C 167.002 114.555,168.664 114.701,168.664 115.670 C 168.664 116.195,169.022 116.093,169.271 115.498 C 169.681 114.516,170.921 114.601,171.316 115.638 C 171.513 116.157,171.860 116.135,171.860 115.604 C 171.860 114.987,172.234 114.869,174.191 114.869 C 176.212 114.869,176.653 115.030,176.653 115.769 C 176.653 115.958,176.733 116.112,176.831 116.112 C 176.929 116.112,177.008 115.672,177.008 115.135 C 177.008 114.027,177.404 113.449,178.162 113.449 C 178.921 113.449,179.316 114.027,179.316 115.135 C 179.316 116.247,179.465 116.357,179.849 115.531 L 180.115 114.958 183.836 114.869 L 187.557 114.780 187.660 114.339 C 187.905 113.300,189.475 113.176,189.849 114.167 C 190.084 114.790,190.278 114.840,190.356 114.298 C 190.515 113.195,192.201 113.227,192.571 114.340 C 192.779 114.965,192.793 114.957,193.071 114.069 C 193.345 113.194,194.960 113.338,195.118 114.252 L 195.210 114.780 196.715 114.780 C 198.080 114.780,198.226 114.747,198.285 114.425 C 198.387 113.868,198.857 113.449,199.379 113.449 C 199.900 113.449,200.370 113.868,200.472 114.425 C 200.575 114.986,223.081 115.074,223.472 114.515 C 223.831 114.003,225.381 114.002,225.655 114.514 C 225.824 114.831,226.026 114.869,227.534 114.869 L 229.224 114.869 229.503 115.535 L 229.782 116.201 230.048 115.801 C 230.433 115.223,231.884 115.223,232.269 115.801 L 232.535 116.201 232.814 115.535 C 233.223 114.560,234.887 114.669,234.887 115.670 C 234.887 116.195,235.245 116.093,235.494 115.498 C 235.904 114.516,237.144 114.601,237.538 115.638 C 237.736 116.157,238.083 116.135,238.083 115.604 C 238.083 114.541,239.801 114.584,240.209 115.658 L 240.405 116.173 240.709 115.566 C 241.221 114.540,242.876 114.695,242.876 115.769 C 242.876 116.281,243.109 116.177,243.409 115.531 C 243.847 114.589,245.240 114.622,245.450 115.579 C 245.599 116.257,245.740 116.246,246.072 115.531 C 246.307 115.025,246.422 114.958,247.048 114.958 C 247.675 114.958,247.790 115.025,248.025 115.531 C 248.171 115.846,248.331 116.104,248.380 116.104 C 248.429 116.104,248.589 115.846,248.735 115.531 C 248.970 115.025,249.085 114.958,249.711 114.958 C 250.338 114.958,250.453 115.025,250.688 115.531 L 250.954 116.104 252.952 116.108 C 254.715 116.111,254.991 116.070,255.304 115.757 C 255.756 115.305,256.728 115.293,257.272 115.733 C 257.679 116.062,257.682 116.061,257.957 115.511 C 258.434 114.557,260.098 114.730,260.098 115.733 C 260.098 115.924,260.313 116.102,260.675 116.208 C 261.124 116.340,261.272 116.496,261.342 116.911 C 261.496 117.813,261.780 117.501,261.873 116.327 C 261.971 115.098,262.152 114.876,263.061 114.872 C 263.773 114.868,263.892 115.058,264.003 116.378 C 264.090 117.410,264.375 117.812,264.508 117.088 C 264.657 116.275,265.028 116.112,266.739 116.108 L 268.353 116.104 268.620 115.531 L 268.886 114.958 273.946 114.908 C 279.731 114.851,279.734 114.851,279.893 115.579 C 280.042 116.257,280.183 116.246,280.515 115.531 C 280.750 115.025,280.864 114.958,281.491 114.958 C 282.118 114.958,282.233 115.025,282.468 115.531 L 282.734 116.104 284.826 116.108 C 286.665 116.111,286.929 116.074,287.013 115.801 C 287.206 115.177,287.395 114.957,287.786 114.899 C 288.513 114.791,288.994 115.025,289.187 115.578 L 289.373 116.112 292.278 116.112 C 295.395 116.112,295.712 116.191,295.815 117.000 C 295.920 117.813,296.226 117.377,296.316 116.287 C 296.415 115.096,296.602 114.876,297.523 114.872 C 298.027 114.869,298.146 114.957,298.369 115.490 C 298.620 116.090,298.661 116.112,299.575 116.112 C 300.575 116.112,301.009 116.383,301.138 117.088 C 301.233 117.606,301.507 117.522,301.666 116.926 C 301.977 115.763,303.240 115.809,303.240 116.983 C 303.240 117.153,303.433 117.474,303.669 117.696 L 304.098 118.098 304.358 117.682 C 304.501 117.453,304.670 117.043,304.733 116.770 C 304.917 115.981,306.108 115.953,306.352 116.732 C 306.630 117.620,306.644 117.628,306.852 117.003 C 307.232 115.861,308.831 115.860,309.099 117.002 C 309.190 117.388,309.336 117.462,310.261 117.590 C 312.371 117.882,312.335 117.891,312.647 117.001 C 313.035 115.894,314.084 115.842,314.354 116.916 C 314.495 117.481,314.711 117.476,314.855 116.905 C 315.113 115.876,316.582 115.884,317.014 116.917 L 317.271 117.532 318.609 117.532 C 319.939 117.532,319.949 117.529,320.134 116.996 C 320.699 115.377,322.415 115.981,322.415 117.798 C 322.415 119.141,322.740 119.035,322.806 117.671 C 322.866 116.417,323.320 115.944,324.242 116.175 C 324.983 116.362,325.155 116.873,324.794 117.819 C 324.499 118.593,324.500 118.631,324.835 118.966 C 325.289 119.420,325.765 119.106,325.943 118.234 C 326.056 117.682,326.128 117.621,326.663 117.621 C 327.244 117.621,327.420 117.775,327.638 118.476 C 327.827 119.081,328.096 118.578,328.096 117.621 C 328.096 116.595,328.467 116.109,329.245 116.115 C 330.018 116.120,330.133 116.370,330.226 118.237 C 330.325 120.227,330.621 120.623,330.759 118.950 C 330.857 117.759,331.045 117.539,331.966 117.535 C 332.477 117.533,332.589 117.618,332.832 118.198 L 333.110 118.864 333.377 118.464 C 333.591 118.143,333.809 118.065,334.487 118.065 C 335.166 118.065,335.384 118.143,335.598 118.464 L 335.864 118.864 336.143 118.198 C 336.567 117.186,337.801 117.241,338.200 118.290 C 338.366 118.725,338.472 118.775,339.237 118.775 C 340.195 118.775,340.879 119.149,340.879 119.673 C 340.879 119.862,340.959 120.018,341.056 120.018 C 341.154 120.018,341.234 119.636,341.234 119.170 C 341.234 118.055,341.601 117.532,342.385 117.532 C 343.252 117.532,343.542 117.913,343.542 119.054 C 343.542 120.125,343.717 120.287,344.017 119.493 C 344.377 118.540,345.886 118.593,346.131 119.568 C 346.279 120.158,346.438 120.136,346.680 119.493 C 347.040 118.540,348.549 118.593,348.794 119.568 C 348.942 120.158,349.101 120.136,349.343 119.493 C 349.703 118.540,351.212 118.593,351.457 119.568 C 351.519 119.815,351.632 120.018,351.709 120.018 C 351.785 120.018,351.899 119.815,351.961 119.568 C 352.218 118.544,353.688 118.547,354.116 119.571 C 354.358 120.151,354.415 120.180,355.391 120.231 C 356.360 120.281,356.430 120.317,356.720 120.899 L 357.027 121.513 357.226 120.942 C 357.578 119.932,358.888 119.906,359.384 120.899 L 359.690 121.513 359.890 120.942 C 360.096 120.350,360.560 120.115,361.304 120.225 C 361.695 120.283,361.884 120.503,362.077 121.127 C 362.265 121.739,363.641 121.541,363.959 120.857 C 364.348 120.020,364.932 120.001,365.665 120.801 C 365.986 121.151,366.361 121.438,366.497 121.438 C 366.816 121.438,367.277 121.959,367.361 122.415 C 367.474 123.031,370.417 122.948,370.496 122.326 C 370.596 121.549,370.955 121.438,373.382 121.438 L 375.636 121.438 376.277 122.148 C 377.159 123.125,378.030 123.164,378.415 122.243 C 378.846 121.211,380.315 121.202,380.574 122.231 C 380.722 122.821,380.881 122.799,381.123 122.156 C 381.483 121.203,382.992 121.256,383.237 122.231 C 383.385 122.821,383.544 122.799,383.786 122.156 C 384.146 121.203,385.655 121.256,385.900 122.231 C 386.045 122.810,386.260 122.805,386.407 122.219 C 386.479 121.932,386.715 121.684,387.028 121.565 C 387.481 121.395,387.545 121.270,387.633 120.385 C 387.688 119.841,387.815 118.797,387.915 118.065 C 388.015 117.332,388.224 115.814,388.377 114.692 C 388.933 110.635,389.453 75.189,388.962 74.804 C 388.832 74.702,388.407 74.533,388.016 74.428 C 387.625 74.323,387.106 74.181,386.862 74.112 C 386.490 74.007,386.455 74.026,386.646 74.232 C 386.771 74.368,387.289 74.602,387.798 74.752 C 388.672 75.011,388.729 75.065,388.843 75.729 C 389.046 76.919,388.439 88.028,388.101 89.303 C 387.984 89.743,387.837 91.221,387.773 92.588 L 387.658 95.073 386.889 95.872 L 386.120 96.671 385.559 96.020 C 385.250 95.663,384.838 95.342,384.643 95.308 C 384.441 95.274,384.264 95.083,384.233 94.868 C 384.079 93.790,382.898 93.791,382.744 94.870 C 382.639 95.607,380.584 95.485,380.295 94.724 C 380.007 93.965,379.462 93.827,379.149 94.432 C 378.569 95.554,377.452 95.989,377.452 95.093 C 377.452 94.860,377.306 94.488,377.127 94.267 L 376.802 93.866 376.205 94.609 L 375.607 95.352 374.912 94.591 L 374.216 93.830 373.566 94.585 C 372.972 95.274,372.843 95.340,372.078 95.340 C 371.318 95.340,371.205 95.396,370.841 95.959 C 370.336 96.738,370.100 96.739,369.598 95.963 C 369.087 95.175,368.661 95.175,368.197 95.961 C 367.734 96.746,367.417 96.746,366.954 95.961 L 366.587 95.340 365.011 95.340 L 363.436 95.340 363.138 95.917 C 362.440 97.266,361.388 96.945,361.662 95.465 C 361.779 94.834,361.743 94.656,361.425 94.315 L 361.050 93.912 360.323 94.626 L 359.596 95.340 357.650 95.342 L 355.704 95.345 355.035 94.588 L 354.366 93.830 353.690 94.595 L 353.014 95.359 352.365 94.595 L 351.716 93.830 351.040 94.602 L 350.363 95.374 349.708 94.602 L 349.053 93.830 348.384 94.588 C 347.645 95.423,346.637 95.637,346.168 95.056 C 346.042 94.901,345.747 94.565,345.512 94.310 L 345.084 93.848 344.516 94.505 C 343.816 95.315,343.796 95.315,343.046 94.496 L 342.436 93.830 341.861 94.496 C 341.544 94.862,341.219 95.162,341.139 95.162 C 341.059 95.162,340.718 94.862,340.383 94.496 L 339.773 93.830 339.110 94.600 L 338.447 95.369 337.872 94.644 L 337.298 93.919 335.819 93.919 L 334.340 93.919 333.759 94.652 L 333.179 95.385 332.546 94.649 L 331.913 93.914 325.839 93.916 C 321.194 93.919,319.722 93.867,319.581 93.697 C 319.479 93.575,319.241 93.276,319.052 93.032 C 318.664 92.530,318.209 92.656,317.891 93.353 C 317.553 94.095,316.993 94.035,316.520 93.206 C 316.135 92.533,315.734 92.533,315.349 93.206 C 314.930 93.940,314.070 94.127,314.070 93.484 C 314.070 92.679,312.969 92.526,312.624 93.283 C 312.295 94.005,311.912 94.013,311.347 93.309 C 310.729 92.538,310.418 92.514,310.023 93.206 C 309.576 93.990,309.265 94.025,308.717 93.354 C 308.241 92.771,308.234 92.768,306.601 92.757 L 304.963 92.745 304.617 93.332 C 304.175 94.081,303.876 94.073,303.375 93.300 C 302.865 92.512,302.438 92.512,301.974 93.298 C 301.509 94.085,301.194 94.083,300.726 93.288 C 300.272 92.520,299.761 92.523,299.333 93.298 C 298.958 93.977,298.468 93.977,298.093 93.300 L 297.799 92.770 293.647 92.709 C 289.596 92.650,288.859 92.553,288.859 92.076 C 288.859 91.450,288.171 91.174,287.703 91.613 C 287.460 91.841,287.261 92.126,287.261 92.245 C 287.261 92.889,278.646 92.920,278.400 92.277 C 277.965 91.139,276.911 91.094,276.752 92.207 C 276.663 92.833,270.395 92.886,270.395 92.260 C 270.395 92.133,270.211 91.856,269.987 91.645 C 269.515 91.201,268.797 91.501,268.797 92.142 C 268.797 92.657,268.490 92.685,262.828 92.692 L 257.523 92.699 256.983 93.318 C 256.373 94.017,256.073 93.995,255.629 93.217 L 255.333 92.699 247.818 92.689 L 240.302 92.679 239.762 93.308 C 239.149 94.021,238.853 93.998,238.398 93.201 L 238.093 92.666 235.824 92.715 L 233.555 92.765 233.315 93.311 C 232.834 94.401,232.197 94.396,231.675 93.298 C 231.282 92.470,229.699 92.405,229.247 93.197 C 228.786 94.005,228.482 94.030,227.903 93.309 C 227.157 92.379,225.928 92.379,225.182 93.309 C 224.611 94.020,224.299 94.004,223.863 93.240 C 223.394 92.418,220.520 92.499,219.823 93.354 C 219.274 94.027,218.964 93.990,218.512 93.198 L 218.205 92.661 215.230 92.722 L 212.254 92.784 211.986 93.261 C 211.568 94.004,211.249 94.016,210.681 93.309 C 210.063 92.538,209.752 92.514,209.357 93.206 C 208.901 94.005,208.595 94.028,208.018 93.309 C 207.400 92.538,207.089 92.514,206.694 93.206 C 206.245 93.992,205.946 94.019,205.333 93.327 C 205.037 92.991,204.654 92.670,204.483 92.613 C 204.312 92.557,204.172 92.402,204.172 92.269 C 204.172 91.273,202.683 91.201,202.542 92.190 C 202.486 92.582,202.441 92.588,199.467 92.637 L 196.449 92.687 196.048 93.303 C 195.544 94.078,195.248 94.080,194.795 93.313 L 194.437 92.706 190.206 92.707 C 185.826 92.707,185.353 92.783,185.353 93.484 C 185.353 94.120,184.494 93.942,184.082 93.221 C 183.917 92.931,183.606 92.680,183.372 92.647 C 183.106 92.609,182.936 92.450,182.902 92.207 C 182.748 91.127,181.566 91.127,181.412 92.207 C 181.378 92.450,181.208 92.609,180.942 92.647 C 180.708 92.680,180.397 92.931,180.232 93.221 C 179.785 94.005,179.476 94.025,178.901 93.309 C 178.283 92.538,177.972 92.514,177.577 93.206 C 177.121 94.005,176.816 94.028,176.238 93.309 C 175.620 92.538,175.309 92.514,174.914 93.206 C 174.467 93.990,174.156 94.025,173.608 93.354 C 173.132 92.771,173.125 92.768,171.493 92.757 L 169.855 92.745 169.508 93.332 C 169.072 94.071,168.753 94.074,168.310 93.345 L 167.961 92.772 165.639 92.727 L 163.317 92.683 163.017 93.210 C 162.563 94.005,162.257 94.027,161.680 93.309 C 160.929 92.373,159.546 92.360,159.160 93.285 C 158.727 94.320,157.940 94.295,157.432 93.231 C 157.041 92.413,155.470 92.450,154.975 93.289 C 154.508 94.081,154.215 94.083,153.708 93.300 C 153.083 92.335,151.595 92.359,151.132 93.342 C 150.893 93.849,150.713 94.008,150.377 94.008 C 150.042 94.008,149.861 93.849,149.623 93.342 L 149.309 92.676 146.373 92.676 L 143.437 92.676 143.134 93.206 C 142.681 94.000,142.385 94.021,141.774 93.300 C 141.273 92.710,141.171 92.668,140.359 92.715 C 139.506 92.764,139.471 92.746,138.963 91.998 L 138.442 91.232 138.027 91.622 C 137.716 91.913,137.598 92.242,137.558 92.920 C 137.491 94.083,137.084 94.227,136.494 93.298 C 135.967 92.468,133.688 92.602,133.688 93.463 C 133.688 94.124,132.836 93.954,132.410 93.206 C 131.927 92.361,130.397 92.417,129.825 93.300 C 129.320 94.080,129.025 94.081,128.567 93.304 L 128.204 92.690 126.463 92.639 C 124.813 92.590,124.720 92.567,124.666 92.190 C 124.517 91.138,123.434 91.195,123.020 92.277 C 122.736 93.020,116.644 92.828,116.644 92.076 C 116.644 91.948,116.485 91.699,116.289 91.522 C 115.902 91.172,115.224 91.525,115.224 92.076 C 115.224 92.603,114.479 92.676,109.105 92.676 L 103.672 92.676 103.305 93.298 C 102.845 94.078,102.526 94.083,102.073 93.315 C 101.877 92.983,101.529 92.664,101.300 92.607 C 101.051 92.544,100.838 92.324,100.772 92.062 C 100.538 91.129,99.245 91.271,99.245 92.229 C 99.245 92.374,99.049 92.541,98.809 92.602 C 98.569 92.662,98.209 92.989,98.008 93.328 C 97.468 94.244,97.041 94.075,96.973 92.920 C 96.860 90.982,95.340 90.748,95.340 92.668 C 95.340 94.012,94.728 94.328,94.120 93.298 L 93.754 92.676 92.156 92.676 C 90.455 92.676,90.191 92.816,90.191 93.711 C 90.191 94.577,88.901 94.170,88.562 93.196 C 88.323 92.512,88.005 92.540,87.427 93.298 L 86.953 93.919 84.947 93.919 C 82.628 93.919,82.457 93.963,82.102 94.651 C 81.772 95.289,81.191 95.329,80.963 94.729 C 80.704 94.049,80.239 93.919,78.050 93.919 L 76.006 93.919 75.532 94.541 C 74.938 95.319,74.827 95.316,74.118 94.496 L 73.543 93.830 72.933 94.496 C 72.183 95.315,72.163 95.315,71.462 94.505 L 70.894 93.848 70.467 94.310 C 70.232 94.565,69.937 94.901,69.811 95.056 C 69.342 95.637,68.333 95.423,67.599 94.588 L 66.933 93.830 66.267 94.588 L 65.601 95.345 63.533 95.342 L 61.464 95.340 60.913 96.005 L 60.362 96.671 59.786 96.005 L 59.210 95.340 57.674 95.340 L 56.137 95.340 55.587 96.005 L 55.036 96.671 54.460 96.025 C 54.143 95.669,53.704 95.287,53.484 95.175 C 53.265 95.063,53.085 94.867,53.085 94.739 C 53.085 94.113,52.396 93.837,51.929 94.276 C 51.686 94.504,51.487 94.789,51.487 94.908 C 51.487 95.241,51.046 95.340,49.564 95.340 C 48.211 95.340,48.199 95.344,47.626 96.005 L 47.050 96.671 46.499 96.005 C 45.815 95.178,45.679 95.178,44.963 96.005 L 44.387 96.671 43.836 96.005 C 43.153 95.179,42.875 95.170,42.409 95.961 C 42.207 96.303,41.940 96.582,41.814 96.582 C 41.689 96.582,41.373 96.303,41.113 95.961 C 40.852 95.619,40.533 95.340,40.403 95.340 C 40.273 95.340,39.953 95.619,39.692 95.961 L 39.219 96.582 35.671 96.582 C 32.453 96.582,32.114 96.553,32.014 96.272 C 31.645 95.233,31.020 95.103,30.514 95.961 L 30.147 96.582 28.581 96.582 L 27.016 96.582 26.438 97.312 L 25.861 98.041 25.255 97.312 C 24.716 96.663,24.564 96.582,23.879 96.582 C 23.195 96.582,23.043 96.663,22.504 97.312 L 21.898 98.041 21.320 97.312 C 20.445 96.207,18.998 96.287,18.408 97.473 C 18.202 97.887,18.092 97.917,16.595 97.963 C 14.638 98.023,14.558 98.101,14.558 99.962 C 14.558 101.095,14.499 101.374,14.203 101.642 C 13.809 101.999,13.851 104.055,13.779 81.060 L 13.759 74.858 14.626 74.636 C 15.102 74.514,15.569 74.338,15.662 74.245 C 15.977 73.930,15.540 73.906,14.736 74.195 M124.634 93.213 C 124.634 93.982,123.892 94.322,123.365 93.794 C 122.784 93.214,123.058 92.676,123.936 92.676 C 124.594 92.676,124.634 92.707,124.634 93.213 M182.834 93.236 C 182.766 93.916,182.299 94.273,181.846 93.989 C 181.140 93.547,181.346 92.676,182.157 92.676 C 182.872 92.676,182.888 92.690,182.834 93.236 M204.088 93.047 C 204.169 93.301,204.082 93.548,203.812 93.836 C 203.294 94.387,202.574 94.011,202.574 93.189 C 202.574 92.516,203.881 92.394,204.088 93.047 M278.302 93.052 C 278.384 93.311,278.307 93.543,278.055 93.794 C 277.528 94.322,276.787 93.982,276.787 93.213 C 276.787 92.514,278.088 92.377,278.302 93.052 M100.393 93.139 C 100.701 93.447,100.490 93.919,100.044 93.919 C 99.599 93.919,99.388 93.447,99.696 93.139 C 99.853 92.982,100.010 92.854,100.044 92.854 C 100.079 92.854,100.236 92.982,100.393 93.139 M116.254 93.067 C 116.703 93.516,116.285 94.043,115.668 93.806 C 115.257 93.648,115.479 92.854,115.934 92.854 C 115.993 92.854,116.137 92.950,116.254 93.067 M270.040 93.503 C 270.040 93.878,269.517 94.005,269.215 93.703 C 268.979 93.467,268.983 93.404,269.247 93.140 C 269.575 92.812,270.040 93.025,270.040 93.503 M288.494 93.190 C 288.713 93.599,288.349 93.985,287.905 93.815 C 287.564 93.684,287.532 93.365,287.830 93.067 C 288.126 92.770,288.285 92.800,288.494 93.190 M91.072 94.533 C 91.313 94.823,91.179 95.162,90.824 95.162 C 90.504 95.162,90.134 94.688,90.275 94.460 C 90.438 94.195,90.821 94.231,91.072 94.533 M384.199 95.706 C 384.199 96.577,383.505 97.060,382.992 96.547 C 382.457 96.012,382.734 95.340,383.489 95.340 C 384.088 95.340,384.199 95.397,384.199 95.706 M52.720 95.854 C 52.989 96.357,52.472 96.756,52.070 96.354 C 51.834 96.118,51.824 96.019,52.012 95.792 C 52.314 95.429,52.501 95.445,52.720 95.854 M377.393 95.797 C 377.452 95.951,377.370 96.208,377.210 96.368 C 376.798 96.780,376.186 96.240,376.557 95.792 C 376.852 95.438,377.256 95.440,377.393 95.797 M31.580 97.177 C 31.731 97.359,31.700 97.487,31.450 97.714 C 31.065 98.062,30.588 97.702,30.778 97.206 C 30.906 96.873,31.315 96.858,31.580 97.177 M43.475 97.177 C 43.626 97.359,43.595 97.487,43.345 97.714 C 42.960 98.062,42.483 97.702,42.673 97.206 C 42.801 96.873,43.211 96.858,43.475 97.177 M19.643 98.978 C 19.581 99.140,19.391 99.245,19.221 99.212 C 18.837 99.138,18.701 98.541,19.024 98.341 C 19.344 98.143,19.788 98.600,19.643 98.978 M319.475 115.264 C 319.852 115.802,319.822 116.396,319.396 116.822 C 318.369 117.849,316.879 116.464,317.720 115.264 C 317.913 114.988,318.177 114.869,318.597 114.869 C 319.017 114.869,319.282 114.988,319.475 115.264 M287.626 116.899 C 287.375 117.202,287.662 117.887,288.039 117.887 C 288.565 117.887,288.893 117.263,288.536 116.940 C 288.136 116.578,287.902 116.567,287.626 116.899 M369.717 120.474 C 370.120 120.878,370.080 121.913,369.652 122.142 C 368.411 122.806,367.385 121.779,368.049 120.539 C 368.278 120.111,369.313 120.071,369.717 120.474 M71.727 120.903 C 71.383 121.122,71.706 121.704,72.170 121.704 C 72.635 121.704,72.957 121.122,72.614 120.903 C 72.468 120.810,72.268 120.733,72.170 120.733 C 72.073 120.733,71.873 120.810,71.727 120.903 M33.078 121.936 C 33.626 122.508,33.681 122.958,33.261 123.421 C 32.619 124.131,31.425 123.611,31.425 122.623 C 31.425 121.485,32.299 121.122,33.078 121.936 M54.526 122.286 C 54.338 122.637,54.570 123.213,54.899 123.213 C 55.335 123.213,55.743 122.649,55.558 122.303 C 55.333 121.883,54.748 121.873,54.526 122.286 "
          fill="#04c004"/>
    <path d="M15.890 40.969 C 15.224 41.681,15.251 40.922,15.306 57.790 C 15.353 71.987,15.412 74.035,15.776 74.035 C 15.839 74.035,15.866 66.768,15.837 57.887 C 15.784 41.813,15.785 41.738,16.148 41.376 L 16.511 41.012 201.401 41.012 C 369.833 41.012,386.301 41.037,386.399 41.293 C 386.458 41.447,386.507 48.877,386.507 57.804 C 386.507 68.506,386.567 74.035,386.684 74.035 C 387.012 74.035,386.920 41.639,386.591 41.003 L 386.320 40.478 201.332 40.480 L 16.345 40.483 15.890 40.969 M10.503 81.314 C 10.286 81.607,10.188 81.846,10.283 81.846 C 10.379 81.846,10.528 81.719,10.615 81.564 C 10.759 81.308,10.800 81.309,11.068 81.577 C 11.343 81.852,11.363 81.845,11.363 81.485 C 11.363 81.199,11.286 81.128,11.071 81.210 C 10.828 81.304,10.817 81.278,11.004 81.052 C 11.128 80.903,11.154 80.781,11.063 80.781 C 10.971 80.781,10.720 81.021,10.503 81.314 M9.955 82.946 C 9.948 83.208,10.022 83.473,10.120 83.533 C 10.332 83.664,10.332 83.316,10.120 82.823 C 9.984 82.506,9.966 82.519,9.955 82.946 M10.061 84.805 C 9.887 84.979,9.916 85.715,10.101 85.830 C 10.189 85.884,10.308 85.804,10.366 85.653 C 10.428 85.490,10.397 85.425,10.288 85.492 C 10.171 85.564,10.147 85.440,10.221 85.146 C 10.336 84.688,10.285 84.581,10.061 84.805 M11.212 86.961 C 11.196 87.309,11.111 87.503,11.005 87.437 C 10.905 87.376,10.881 87.231,10.950 87.116 C 11.038 86.969,10.994 86.973,10.803 87.127 C 10.654 87.248,10.461 87.288,10.376 87.216 C 10.290 87.143,10.327 87.223,10.457 87.393 C 10.586 87.562,10.764 87.658,10.850 87.604 C 10.937 87.551,11.010 87.611,11.013 87.739 C 11.016 87.881,11.090 87.848,11.202 87.656 C 11.303 87.483,11.352 87.123,11.312 86.857 C 11.245 86.421,11.236 86.431,11.212 86.961 M10.665 128.830 C 10.463 129.087,10.297 129.367,10.297 129.451 C 10.297 129.704,10.592 129.626,10.853 129.305 C 11.059 129.050,11.059 129.027,10.851 129.152 C 10.681 129.254,10.633 129.224,10.693 129.053 C 10.741 128.917,10.904 128.816,11.057 128.828 C 11.224 128.842,11.297 128.754,11.241 128.606 C 11.115 128.280,11.091 128.289,10.665 128.830 M11.185 129.511 C 11.185 129.850,11.115 129.925,10.874 129.842 C 10.597 129.746,10.599 129.762,10.891 129.990 C 11.164 130.203,11.208 130.444,11.157 131.435 C 11.124 132.089,11.156 132.624,11.229 132.624 C 11.303 132.623,11.363 131.824,11.363 130.848 C 11.363 129.871,11.323 129.072,11.274 129.072 C 11.225 129.072,11.185 129.270,11.185 129.511 M10.120 130.011 C 10.120 130.137,10.280 130.252,10.477 130.266 C 10.787 130.290,10.800 130.260,10.578 130.038 C 10.262 129.722,10.120 129.714,10.120 130.011 M10.120 131.380 C 10.120 131.673,10.197 131.913,10.292 131.913 C 10.386 131.913,10.423 132.020,10.372 132.151 C 10.322 132.282,10.420 132.501,10.590 132.639 C 10.858 132.857,10.877 132.855,10.739 132.626 C 10.652 132.482,10.567 132.242,10.551 132.094 C 10.534 131.945,10.457 131.671,10.378 131.483 C 10.265 131.212,10.295 131.164,10.524 131.252 C 10.727 131.330,10.783 131.286,10.713 131.105 C 10.531 130.629,10.120 130.820,10.120 131.380 M389.999 164.876 C 389.483 165.392,390.029 166.397,390.786 166.325 C 391.358 166.270,391.392 166.228,391.444 165.513 L 391.498 164.758 390.808 164.758 C 390.428 164.758,390.064 164.811,389.999 164.876 "
          fill="#6c6c6c"/>
    <path d="M389.646 36.511 C 388.975 37.183,389.778 38.416,390.820 38.315 C 391.404 38.259,391.781 36.959,391.299 36.661 C 391.023 36.491,389.780 36.378,389.646 36.511 M15.605 40.625 L 14.736 41.494 14.736 56.961 C 14.736 71.379,14.757 72.463,15.047 72.939 C 15.344 73.428,15.355 72.769,15.306 57.808 C 15.251 40.921,15.224 41.681,15.890 40.969 L 16.345 40.483 201.332 40.480 L 386.320 40.478 386.591 41.003 C 386.828 41.461,386.864 43.570,386.880 57.736 C 386.891 68.035,386.957 73.692,387.061 73.249 C 387.156 72.844,387.204 65.969,387.176 56.826 C 387.123 39.524,387.163 40.121,386.063 39.849 C 385.815 39.787,78.917 39.841,76.165 39.903 C 76.019 39.907,62.528 39.875,46.186 39.833 L 16.473 39.756 15.605 40.625 M11.429 84.243 C 11.429 85.317,11.459 85.734,11.494 85.169 C 11.529 84.604,11.529 83.725,11.493 83.216 C 11.458 82.707,11.429 83.169,11.429 84.243 M389.700 164.583 C 389.436 164.847,389.373 165.069,389.458 165.427 C 389.695 166.417,389.969 166.463,389.969 165.513 C 389.969 164.856,389.980 164.846,390.723 164.792 C 391.237 164.755,391.478 164.656,391.478 164.482 C 391.478 164.070,390.136 164.147,389.700 164.583 "
          fill="#646464"/>
    <path d="M389.320 37.197 C 389.365 37.765,389.494 38.076,389.760 38.263 C 390.153 38.538,391.478 38.632,391.478 38.385 C 391.478 38.306,391.207 38.274,390.877 38.313 C 389.867 38.431,389.481 38.100,389.554 37.180 C 389.590 36.727,389.540 36.396,389.436 36.396 C 389.332 36.396,389.283 36.732,389.320 37.197 M15.469 40.466 C 15.042 40.841,14.722 41.217,14.759 41.302 C 14.795 41.387,15.194 41.076,15.645 40.613 C 16.631 39.599,16.541 39.524,15.469 40.466 M74.922 39.935 C 75.655 39.994,76.534 39.990,76.875 39.926 C 77.227 39.861,76.648 39.814,75.544 39.818 C 73.708 39.826,73.671 39.833,74.922 39.935 M14.601 57.479 C 14.554 74.814,14.602 74.035,13.588 74.035 C 12.939 74.035,12.895 74.612,12.894 83.178 C 12.893 93.840,13.122 143.696,13.225 154.993 L 13.303 163.604 12.893 164.552 C 12.406 165.679,12.452 166.451,12.989 166.163 C 13.178 166.062,13.417 165.764,13.521 165.502 C 13.697 165.056,13.518 120.878,13.200 86.285 L 13.096 75.011 13.485 74.523 C 13.699 74.254,14.023 74.035,14.205 74.035 C 14.386 74.035,14.743 73.956,14.996 73.859 L 15.457 73.684 15.141 73.105 C 14.846 72.565,14.818 71.461,14.734 57.079 L 14.644 41.633 14.601 57.479 M387.143 73.033 C 386.968 73.832,387.081 73.947,388.202 74.115 C 389.787 74.353,389.715 73.006,389.436 97.204 C 389.391 101.110,389.312 108.020,389.260 112.561 C 389.167 120.671,389.095 126.803,388.889 144.027 C 388.833 148.785,388.731 153.060,388.663 153.525 C 388.595 153.991,388.614 154.841,388.705 155.415 C 388.823 156.156,388.805 156.791,388.644 157.603 C 388.499 158.331,388.459 159.244,388.533 160.110 C 388.619 161.109,388.578 161.711,388.380 162.361 C 388.018 163.546,388.036 164.090,388.453 164.621 C 388.838 165.109,388.702 165.328,387.584 166.026 C 387.258 166.228,387.147 166.459,387.134 166.955 L 387.118 167.616 388.543 167.563 L 389.969 167.510 389.999 166.898 C 390.016 166.561,389.926 166.202,389.799 166.099 C 388.963 165.423,389.459 164.388,390.701 164.215 L 391.567 164.095 390.768 164.069 C 390.328 164.054,389.860 163.973,389.726 163.889 C 389.485 163.736,389.539 115.333,389.796 100.843 C 390.035 87.357,390.053 75.012,389.833 74.579 C 389.664 74.245,389.364 74.092,388.514 73.903 C 387.428 73.662,387.414 73.652,387.354 73.004 L 387.294 72.348 387.143 73.033 M11.572 84.154 C 11.572 85.165,11.593 85.237,11.739 84.731 C 11.843 84.372,11.843 83.937,11.739 83.577 C 11.593 83.072,11.572 83.144,11.572 84.154 M232.978 144.812 C 232.639 144.885,232.574 145.023,232.549 145.729 C 232.521 146.502,232.514 146.514,232.449 145.894 L 232.380 145.229 217.932 145.229 L 203.483 145.229 203.414 145.894 L 203.344 146.560 203.314 145.894 L 203.285 145.229 202.052 145.229 L 200.820 145.229 200.751 145.894 L 200.681 146.560 200.651 145.894 L 200.621 145.229 198.058 145.229 L 195.494 145.229 195.424 145.894 L 195.355 146.560 195.325 145.894 L 195.295 145.229 194.063 145.229 L 192.831 145.229 192.761 145.894 L 192.692 146.560 192.662 145.894 L 192.632 145.229 186.784 145.229 L 180.936 145.229 180.866 145.894 L 180.796 146.560 180.767 145.894 L 180.737 145.229 177.452 145.229 L 174.168 145.229 174.168 145.850 C 174.168 146.442,174.138 146.471,173.546 146.471 C 172.955 146.471,172.925 146.442,172.925 145.850 L 172.925 145.229 170.262 145.229 L 167.599 145.229 167.599 145.850 L 167.599 146.471 164.324 146.471 L 161.050 146.471 160.982 147.226 L 160.914 147.980 160.883 147.226 L 160.852 146.471 155.615 146.471 L 150.377 146.471 150.377 145.850 L 150.377 145.229 149.046 145.229 L 147.714 145.229 147.714 146.464 L 147.714 147.699 149.090 147.760 C 150.176 147.807,150.026 147.828,148.380 147.856 L 146.294 147.892 146.294 147.182 L 146.294 146.471 145.051 146.471 L 143.808 146.471 143.808 147.182 L 143.808 147.892 141.767 147.892 L 139.725 147.892 139.725 147.182 L 139.725 146.471 138.482 146.471 L 137.239 146.471 137.239 147.182 L 137.239 147.892 135.918 147.892 L 134.598 147.892 134.528 148.557 L 134.458 149.223 134.428 148.557 L 134.399 147.892 133.156 147.892 L 131.913 147.892 131.913 148.513 C 131.913 149.120,131.896 149.134,131.203 149.134 L 130.493 149.134 130.493 148.371 C 130.493 147.385,130.265 147.182,129.161 147.182 C 128.057 147.182,127.830 147.385,127.830 148.371 L 127.830 149.134 127.119 149.134 C 126.426 149.134,126.409 149.120,126.409 148.513 L 126.409 147.892 125.166 147.892 L 123.924 147.892 123.924 148.513 C 123.924 149.120,123.907 149.134,123.213 149.134 C 122.506 149.134,122.503 149.132,122.503 148.439 C 122.503 147.277,122.409 147.182,121.261 147.182 C 120.112 147.182,120.018 147.277,120.018 148.439 L 120.018 149.134 117.976 149.134 L 115.934 149.134 115.934 149.756 L 115.934 150.377 114.603 150.377 L 113.271 150.377 113.271 149.756 L 113.271 149.134 111.318 149.134 L 109.365 149.134 109.365 149.756 C 109.365 150.362,109.348 150.377,108.655 150.377 C 107.962 150.377,107.945 150.362,107.945 149.756 L 107.945 149.134 106.702 149.134 L 105.459 149.134 105.459 150.369 L 105.459 151.605 106.747 151.666 C 107.455 151.699,106.855 151.743,105.415 151.762 L 102.796 151.798 102.796 152.419 C 102.796 153.026,102.779 153.040,102.086 153.040 C 101.393 153.040,101.376 153.026,101.376 152.419 L 101.376 151.798 100.044 151.798 L 98.713 151.798 98.713 152.419 L 98.713 153.040 97.381 153.040 L 96.050 153.040 96.050 153.751 L 96.050 154.461 94.107 154.461 L 92.165 154.461 92.096 155.126 L 92.026 155.792 91.996 155.126 L 91.966 154.461 90.723 154.461 L 89.481 154.461 89.481 155.082 L 89.481 155.704 88.149 155.704 L 86.818 155.704 86.818 156.414 L 86.818 157.124 84.865 157.124 L 82.912 157.124 82.912 158.359 L 82.912 159.594 84.288 159.655 L 85.664 159.715 84.298 159.751 L 82.933 159.787 82.863 160.453 C 82.825 160.819,82.780 160.499,82.764 159.743 L 82.734 158.367 81.491 158.367 L 80.249 158.367 80.249 159.077 L 80.249 159.787 79.538 159.787 C 78.845 159.787,78.828 159.802,78.828 160.408 L 78.828 161.030 77.497 161.030 L 76.165 161.030 76.165 160.408 L 76.165 159.787 74.922 159.787 L 73.680 159.787 73.680 161.022 L 73.680 162.257 74.967 162.318 C 75.950 162.365,75.783 162.388,74.257 162.415 L 72.259 162.450 72.259 163.071 L 72.259 163.693 70.928 163.693 L 69.596 163.693 69.596 164.391 C 69.596 164.927,69.516 165.115,69.250 165.199 C 68.424 165.461,68.402 167.489,69.224 167.567 C 69.999 167.642,70.707 167.462,70.562 167.227 C 70.373 166.920,70.657 165.823,70.926 165.823 C 71.097 165.823,71.191 166.088,71.229 166.667 C 71.286 167.565,71.752 167.809,72.874 167.528 C 73.413 167.392,73.237 165.719,72.642 165.324 C 71.890 164.825,72.122 164.048,73.024 164.048 C 74.112 164.048,74.864 164.763,74.250 165.215 C 74.079 165.342,73.983 165.763,73.968 166.458 L 73.946 167.510 76.165 167.510 L 78.384 167.510 78.473 166.711 C 78.535 166.159,78.644 165.912,78.828 165.912 C 79.012 165.912,79.122 166.159,79.183 166.711 L 79.272 167.510 80.160 167.510 L 81.047 167.510 81.136 166.711 C 81.198 166.159,81.307 165.912,81.491 165.912 C 81.675 165.912,81.785 166.159,81.846 166.711 L 81.935 167.510 84.154 167.510 L 86.374 167.510 86.462 166.711 C 86.590 165.567,87.064 165.605,87.138 166.764 L 87.193 167.617 88.115 167.563 L 89.037 167.510 89.126 166.725 C 89.174 166.293,89.310 165.908,89.426 165.870 C 89.644 165.799,89.909 166.770,89.804 167.250 C 89.759 167.454,89.959 167.510,90.723 167.510 L 91.700 167.510 91.789 166.725 C 91.838 166.293,91.973 165.908,92.089 165.870 C 92.307 165.799,92.573 166.770,92.467 167.250 C 92.418 167.474,93.409 167.517,99.689 167.559 C 106.972 167.609,107.881 167.571,107.668 167.227 C 107.485 166.931,107.763 165.792,108.000 165.870 C 108.116 165.908,108.251 166.293,108.300 166.725 L 108.389 167.510 111.940 167.510 L 115.490 167.510 115.547 166.800 C 115.653 165.454,116.281 165.569,116.287 166.935 L 116.289 167.603 122.548 167.557 L 128.806 167.510 128.860 166.667 C 128.890 166.203,128.987 165.823,129.076 165.823 C 129.344 165.823,129.631 166.522,129.572 167.031 L 129.516 167.510 131.824 167.510 L 134.132 167.510 134.080 166.977 C 134.001 166.179,134.453 165.617,134.742 166.156 C 134.859 166.374,134.929 166.768,134.898 167.031 L 134.842 167.510 141.056 167.510 L 147.270 167.510 147.371 166.759 C 147.540 165.487,147.888 165.487,148.058 166.759 L 148.158 167.510 207.368 167.510 L 266.578 167.510 266.525 166.977 C 266.446 166.179,266.899 165.617,267.187 166.156 C 267.304 166.374,267.375 166.768,267.344 167.031 L 267.288 167.510 276.165 167.510 L 285.042 167.510 285.142 166.759 C 285.316 165.456,285.833 165.588,285.838 166.937 L 285.841 167.606 289.436 167.558 L 293.032 167.510 293.132 166.759 C 293.187 166.346,293.280 165.959,293.339 165.900 C 293.525 165.715,293.856 166.531,293.797 167.031 L 293.742 167.510 301.021 167.559 C 309.480 167.617,309.007 167.666,309.019 166.725 C 309.033 165.473,309.452 165.497,309.620 166.759 L 309.720 167.510 319.796 167.556 C 329.302 167.599,329.872 167.584,329.890 167.290 C 329.901 167.118,329.927 166.858,329.949 166.711 C 329.970 166.565,330.002 166.305,330.018 166.134 C 330.036 165.954,330.195 165.823,330.396 165.823 C 330.745 165.823,331.038 166.645,330.905 167.250 C 330.860 167.454,331.059 167.510,331.824 167.510 C 332.589 167.510,332.788 167.454,332.744 167.250 C 332.635 166.755,332.904 165.823,333.156 165.823 C 333.407 165.823,333.677 166.755,333.568 167.250 C 333.528 167.431,333.695 167.528,334.112 167.567 C 334.890 167.642,335.599 167.462,335.453 167.227 C 335.263 166.919,335.548 165.823,335.819 165.823 C 336.070 165.823,336.340 166.755,336.231 167.250 C 336.191 167.431,336.358 167.528,336.776 167.567 C 337.553 167.642,338.262 167.462,338.117 167.227 C 337.934 166.931,338.211 165.792,338.448 165.870 C 338.564 165.908,338.700 166.293,338.748 166.725 C 338.832 167.467,338.870 167.513,339.439 167.567 C 340.216 167.642,340.925 167.462,340.780 167.227 C 340.597 166.931,340.875 165.792,341.111 165.870 C 341.227 165.908,341.363 166.293,341.411 166.725 C 341.506 167.559,342.009 167.799,343.091 167.528 C 343.836 167.341,343.238 165.113,342.443 165.113 C 342.364 165.113,342.299 164.794,342.299 164.403 L 342.299 163.693 340.346 163.693 L 338.393 163.693 338.393 162.361 L 338.393 161.030 337.772 161.030 C 337.180 161.030,337.150 161.000,337.150 160.408 L 337.150 159.787 335.775 159.757 C 335.018 159.741,334.698 159.696,335.064 159.658 C 336.521 159.505,335.401 157.124,333.872 157.124 C 333.273 157.124,333.245 157.152,333.245 157.745 C 333.245 158.352,333.228 158.367,332.534 158.367 L 331.824 158.367 331.824 159.077 L 331.824 159.787 331.114 159.787 L 330.404 159.787 330.404 159.077 L 330.404 158.367 328.451 158.367 L 326.498 158.367 326.498 157.745 L 326.498 157.124 324.545 157.124 L 322.592 157.124 322.592 156.414 L 322.592 155.704 321.261 155.704 L 319.929 155.704 319.929 154.372 L 319.929 153.040 318.597 153.040 L 317.266 153.040 317.266 153.751 L 317.266 154.461 315.934 154.461 L 314.603 154.461 314.603 153.751 L 314.603 153.040 312.561 153.040 L 310.519 153.040 310.519 152.419 L 310.519 151.798 309.277 151.798 L 308.034 151.798 308.034 151.087 L 308.034 150.377 307.324 150.377 C 306.630 150.377,306.613 150.362,306.613 149.756 L 306.613 149.134 305.371 149.134 L 304.128 149.134 304.128 150.367 L 304.128 151.599 304.794 151.668 C 305.160 151.707,304.820 151.738,304.039 151.738 C 303.258 151.738,302.918 151.707,303.285 151.668 L 303.950 151.599 303.950 150.367 L 303.950 149.134 302.718 149.134 L 301.486 149.134 301.417 149.800 C 301.378 150.169,301.334 149.892,301.317 149.179 L 301.287 147.892 300.044 147.892 L 298.802 147.892 298.802 148.513 L 298.802 149.134 297.381 149.134 L 295.961 149.134 295.961 148.513 L 295.961 147.892 294.718 147.892 L 293.475 147.892 293.475 148.513 C 293.475 149.120,293.458 149.134,292.765 149.134 C 292.072 149.134,292.055 149.120,292.055 148.513 L 292.055 147.892 290.823 147.892 L 289.591 147.892 289.521 148.557 L 289.452 149.223 289.422 148.557 L 289.392 147.892 288.149 147.892 L 286.906 147.892 286.906 148.513 C 286.906 149.120,286.889 149.134,286.196 149.134 C 285.503 149.134,285.486 149.120,285.486 148.513 L 285.486 147.892 281.491 147.892 L 277.497 147.892 277.497 147.182 L 277.497 146.471 274.933 146.471 L 272.368 146.471 272.300 147.226 L 272.232 147.980 272.201 147.226 L 272.170 146.471 270.839 146.471 L 269.507 146.471 269.507 145.850 L 269.507 145.229 268.265 145.229 L 267.022 145.229 267.022 145.850 L 267.022 146.471 265.601 146.471 L 264.181 146.471 264.181 145.850 L 264.181 145.229 262.938 145.229 L 261.696 145.229 261.696 145.850 L 261.696 146.471 260.275 146.471 L 258.855 146.471 258.855 145.850 L 258.855 145.229 250.344 145.229 L 241.832 145.229 241.763 145.894 L 241.693 146.560 241.663 145.894 L 241.633 145.229 238.364 145.229 C 236.373 145.229,235.071 145.160,235.035 145.053 C 234.966 144.851,233.565 144.686,232.978 144.812 M280.160 146.471 L 280.160 147.714 281.491 147.714 L 282.823 147.714 282.823 147.127 C 282.823 146.198,281.836 145.229,280.890 145.229 L 280.160 145.229 280.160 146.471 M112.699 151.749 C 112.335 151.787,111.696 151.788,111.279 151.750 C 110.861 151.713,111.158 151.682,111.940 151.681 C 112.721 151.680,113.062 151.711,112.699 151.749 M297.071 151.745 C 296.851 151.788,296.491 151.788,296.272 151.745 C 296.052 151.703,296.232 151.668,296.671 151.668 C 297.111 151.668,297.290 151.703,297.071 151.745 M324.138 155.282 C 324.069 155.351,324.012 155.754,324.012 156.177 L 324.012 156.946 325.265 156.946 L 326.517 156.946 326.463 156.103 L 326.409 155.260 325.337 155.208 C 324.747 155.179,324.208 155.213,324.138 155.282 M318.634 156.813 C 318.592 157.033,318.557 156.853,318.557 156.414 C 318.557 155.974,318.592 155.794,318.634 156.014 C 318.676 156.234,318.676 156.593,318.634 156.813 M90.504 157.068 C 90.334 157.113,90.014 157.114,89.793 157.072 C 89.573 157.029,89.711 156.993,90.102 156.991 C 90.493 156.989,90.673 157.024,90.504 157.068 M339.814 159.698 L 339.814 161.030 341.056 161.030 L 342.299 161.030 342.299 159.698 L 342.299 158.367 341.056 158.367 L 339.814 158.367 339.814 159.698 M80.218 163.737 C 80.200 164.549,80.156 164.866,80.119 164.447 C 80.053 163.719,80.029 163.693,79.439 163.693 C 78.845 163.693,78.828 163.674,78.828 162.983 L 78.828 162.273 79.538 162.273 L 80.249 162.273 80.218 163.737 M335.855 163.382 C 335.813 163.602,335.778 163.422,335.778 162.983 C 335.778 162.543,335.813 162.364,335.855 162.583 C 335.898 162.803,335.898 163.162,335.855 163.382 M342.477 163.249 L 342.477 164.048 343.242 164.048 C 344.330 164.048,345.081 164.763,344.468 165.215 C 344.296 165.342,344.201 165.763,344.186 166.458 L 344.163 167.510 345.051 167.510 L 345.939 167.510 345.993 166.651 C 346.028 166.108,345.951 165.645,345.784 165.390 C 345.639 165.169,345.466 164.696,345.399 164.340 C 345.332 163.984,345.207 163.693,345.120 163.693 C 345.033 163.693,344.962 163.413,344.962 163.071 L 344.962 162.450 343.719 162.450 L 342.477 162.450 342.477 163.249 M76.728 164.270 C 77.262 164.701,77.245 165.074,76.680 165.270 C 76.089 165.476,75.277 165.222,75.277 164.831 C 75.277 164.205,76.203 163.847,76.728 164.270 M84.687 164.403 C 85.153 164.869,85.135 165.014,84.584 165.265 C 83.992 165.535,82.711 165.203,82.859 164.818 C 83.116 164.148,84.189 163.905,84.687 164.403 M320.616 164.819 C 320.770 165.004,320.715 165.103,320.372 165.259 C 319.699 165.566,318.737 165.122,319.160 164.699 C 319.371 164.488,320.413 164.574,320.616 164.819 M323.292 164.834 C 323.642 165.257,322.909 165.542,322.131 165.285 C 321.627 165.119,321.549 165.034,321.718 164.830 C 321.988 164.506,323.021 164.508,323.292 164.834 M56.164 165.384 C 56.089 165.577,56.025 166.134,56.021 166.622 L 56.014 167.510 57.967 167.510 L 59.920 167.510 59.977 166.920 C 60.087 165.766,59.673 165.465,58.047 165.514 C 56.952 165.547,56.587 165.497,56.462 165.296 C 56.326 165.077,56.278 165.091,56.164 165.384 M61.179 165.346 C 60.859 165.579,60.474 167.294,60.691 167.512 C 60.739 167.560,61.168 167.599,61.644 167.599 L 62.511 167.599 62.458 166.400 C 62.401 165.093,61.989 164.754,61.179 165.346 M63.724 165.957 C 63.716 166.420,63.684 166.937,63.652 167.104 C 63.585 167.449,64.099 167.677,64.592 167.520 C 64.932 167.412,65.112 166.163,64.888 165.458 C 64.628 164.639,63.739 165.019,63.724 165.957 M66.126 165.527 C 66.069 165.754,66.047 166.294,66.078 166.725 L 66.134 167.510 67.018 167.510 L 67.902 167.510 67.848 166.711 C 67.750 165.271,66.420 164.356,66.126 165.527 M347.194 165.392 C 346.324 166.263,346.593 167.495,347.670 167.564 L 348.513 167.618 348.513 166.366 L 348.513 165.113 347.993 165.113 C 347.707 165.113,347.348 165.239,347.194 165.392 M349.693 165.249 C 349.611 165.382,349.511 166.933,349.556 167.387 C 349.609 167.926,351.259 167.566,351.323 167.000 C 351.468 165.732,350.222 164.393,349.693 165.249 M352.419 165.468 C 352.158 165.730,352.064 166.060,352.064 166.720 L 352.064 167.617 352.996 167.564 C 353.876 167.513,353.931 167.481,353.986 167.000 C 354.153 165.543,353.238 164.649,352.419 165.468 M355.187 165.346 C 354.867 165.579,354.482 167.294,354.699 167.512 C 354.747 167.560,355.176 167.599,355.652 167.599 L 356.519 167.599 356.466 166.400 C 356.409 165.093,355.997 164.754,355.187 165.346 M357.471 165.527 C 357.414 165.754,357.392 166.294,357.423 166.725 L 357.479 167.510 358.367 167.510 C 359.324 167.510,359.540 167.167,359.268 166.081 C 359.023 165.106,357.680 164.692,357.471 165.527 M42.645 165.703 C 42.329 166.043,42.176 166.671,42.236 167.377 C 42.248 167.513,42.522 167.599,42.950 167.599 C 44.185 167.599,44.226 167.535,43.935 166.076 C 43.810 165.453,43.074 165.240,42.645 165.703 M49.464 165.572 C 49.196 166.270,49.346 167.599,49.693 167.599 C 50.109 167.599,50.226 167.314,50.135 166.527 C 49.998 165.353,49.707 164.939,49.464 165.572 M51.975 165.575 C 51.568 165.791,51.487 165.952,51.487 166.539 C 51.487 166.927,51.487 167.304,51.487 167.377 C 51.487 167.450,51.866 167.510,52.330 167.510 L 53.174 167.510 53.174 166.644 C 53.174 165.543,52.748 165.164,51.975 165.575 M361.888 165.515 C 361.597 165.645,361.491 165.874,361.443 166.478 C 361.360 167.522,361.455 167.632,362.379 167.566 L 363.160 167.510 363.160 166.546 C 363.160 165.486,362.731 165.139,361.888 165.515 M365.746 165.587 C 365.429 165.809,365.371 166.001,365.415 166.683 L 365.468 167.510 366.356 167.510 L 367.244 167.510 367.189 166.889 C 367.074 165.583,366.496 165.062,365.746 165.587 M368.627 165.852 C 368.514 166.401,368.503 166.622,368.556 167.332 C 368.578 167.634,369.222 167.699,369.319 167.410 C 369.353 167.306,369.340 166.813,369.289 166.314 C 369.180 165.246,368.807 164.986,368.627 165.852 M371.042 165.533 C 370.279 165.914,370.416 167.491,371.219 167.567 C 372.566 167.696,372.680 167.549,372.386 166.076 C 372.280 165.547,371.580 165.265,371.042 165.533 M375.303 165.690 C 375.292 165.910,375.264 166.429,375.240 166.844 C 375.202 167.477,375.249 167.599,375.525 167.599 C 375.706 167.599,375.863 167.479,375.874 167.332 C 375.927 166.623,375.916 166.403,375.805 165.868 C 375.669 165.210,375.331 165.090,375.303 165.690 M38.863 165.596 C 38.460 165.689,38.132 166.383,38.201 166.993 C 38.299 167.853,40.009 167.788,40.092 166.921 C 40.170 166.105,39.551 165.437,38.863 165.596 M377.659 165.779 C 377.429 165.975,377.275 166.352,377.241 166.800 L 377.187 167.510 378.163 167.510 L 379.139 167.510 379.193 166.865 C 379.278 165.845,378.352 165.189,377.659 165.779 M382.986 165.779 C 382.756 165.975,382.601 166.352,382.567 166.800 L 382.513 167.510 383.489 167.510 L 384.464 167.510 384.410 166.800 C 384.361 166.149,383.890 165.468,383.489 165.468 C 383.413 165.468,383.186 165.608,382.986 165.779 M17.695 166.119 C 17.388 166.427,17.575 167.599,17.932 167.599 C 18.279 167.599,18.318 167.526,18.360 166.800 C 18.393 166.224,17.996 165.818,17.695 166.119 M26.973 166.134 C 26.837 167.526,26.847 167.599,27.182 167.599 C 27.377 167.599,27.528 167.468,27.539 167.288 C 27.551 167.117,27.572 166.858,27.587 166.711 C 27.601 166.565,27.542 166.345,27.456 166.223 C 27.282 165.978,26.994 165.925,26.973 166.134 M32.198 166.223 C 32.112 166.345,32.053 166.565,32.067 166.711 C 32.082 166.858,32.103 167.117,32.114 167.288 C 32.138 167.644,32.830 167.725,32.871 167.377 C 32.974 166.513,32.832 166.001,32.490 166.001 C 32.416 166.001,32.285 166.101,32.198 166.223 M34.866 166.217 C 34.777 166.342,34.716 166.565,34.730 166.711 C 34.745 166.858,34.766 167.117,34.778 167.288 C 34.801 167.645,35.430 167.717,35.545 167.377 C 35.778 166.684,35.217 165.726,34.866 166.217 M45.486 166.233 C 45.394 166.350,45.341 166.585,45.369 166.755 C 45.396 166.926,45.341 167.066,45.245 167.066 C 45.149 167.066,45.198 167.194,45.354 167.350 C 45.764 167.760,46.079 167.553,46.127 166.840 C 46.171 166.186,45.802 165.836,45.486 166.233 M22.883 166.254 C 22.858 166.385,22.858 166.990,22.883 167.332 C 22.907 167.656,23.327 167.683,23.563 167.377 C 23.806 167.062,23.566 166.280,23.206 166.211 C 23.039 166.179,22.894 166.198,22.883 166.254 "
          fill="#04641c"/>
</svg>